<?xml version="1.0" encoding="UTF-8" standalone="no"?>
<!-- Created with Inkscape (http://www.inkscape.org/) -->

<svg
   xmlns:osb="http://www.openswatchbook.org/uri/2009/osb"
   xmlns:dc="http://purl.org/dc/elements/1.1/"
   xmlns:cc="http://creativecommons.org/ns#"
   xmlns:rdf="http://www.w3.org/1999/02/22-rdf-syntax-ns#"
   xmlns:svg="http://www.w3.org/2000/svg"
   xmlns="http://www.w3.org/2000/svg"
   xmlns:sodipodi="http://sodipodi.sourceforge.net/DTD/sodipodi-0.dtd"
   xmlns:inkscape="http://www.inkscape.org/namespaces/inkscape"
   width="744.09448819"
   height="1052.3622047"
   id="svg3230"
   version="1.1"
   inkscape:version="0.48.5 r10040"
   sodipodi:docname="login.svg">
  <defs
     id="defs3232">
    <linearGradient
       id="linearGradient4071"
       osb:paint="solid">
      <stop
         style="stop-color:#000000;stop-opacity:1;"
         offset="0"
         id="stop4073" />
    </linearGradient>
  </defs>
  <sodipodi:namedview
     id="base"
     pagecolor="#ffffff"
     bordercolor="#666666"
     borderopacity="1.0"
     inkscape:pageopacity="0.0"
     inkscape:pageshadow="2"
     inkscape:zoom="1.4"
     inkscape:cx="374.22162"
     inkscape:cy="829.62491"
     inkscape:document-units="px"
     inkscape:current-layer="layer1"
     showgrid="false"
     inkscape:window-width="1440"
     inkscape:window-height="843"
     inkscape:window-x="-2"
     inkscape:window-y="-3"
     inkscape:window-maximized="1"
     showguides="true"
     inkscape:guide-bbox="true" />
  <metadata
     id="metadata3235">
    <rdf:RDF>
      <cc:Work
         rdf:about="">
        <dc:format>image/svg+xml</dc:format>
        <dc:type
           rdf:resource="http://purl.org/dc/dcmitype/StillImage" />
        <dc:title />
      </cc:Work>
    </rdf:RDF>
  </metadata>
  <g
     inkscape:label="Layer 1"
     inkscape:groupmode="layer"
     id="layer1">
    <rect
       style="fill:#ffffff;fill-opacity:1;stroke:none"
       id="rect5760"
       width="792.14288"
       height="260.71429"
       x="-17.142857"
       y="40.219322" />
    <rect
       style="fill:#f2f2f2;fill-opacity:1;stroke-width:0;stroke-miterlimit:4;stroke-dasharray:none"
       id="rect5745"
       width="854.77832"
       height="267.86371"
       x="-32.142857"
       y="300.49753" />
    <rect
       style="fill:#2c3e50;fill-opacity:1;stroke-width:0;stroke-miterlimit:4;stroke-dasharray:none"
       id="rect3238"
       width="856.9212"
       height="40.486576"
       x="-31.428572"
       y="-0.21676964" />
    <text
       xml:space="preserve"
       style="font-size:13px;font-style:normal;font-weight:normal;line-height:125%;letter-spacing:0px;word-spacing:0px;fill:#2c3e50;fill-opacity:1;stroke:none;font-family:Sans"
       x="48.055908"
       y="90.336563"
       id="text4008"
       sodipodi:linespacing="125%"><tspan
         sodipodi:role="line"
         id="tspan4010"
         x="48.055908"
         y="90.336563"
         style="font-size:18px;fill:#2c3e50">Login to your Agora Voting account</tspan></text>
    <rect
       style="fill:none;stroke:#cc2929;stroke-width:1.22131503;stroke-miterlimit:4;stroke-opacity:0.65217393;stroke-dasharray:none"
       id="rect4012"
       width="251.54073"
       height="22.223356"
       x="173.38225"
       y="134.28366"
       ry="3.5714285" />
    <text
       xml:space="preserve"
       style="font-size:13px;font-style:normal;font-weight:normal;line-height:125%;letter-spacing:0px;word-spacing:0px;fill:#333333;fill-opacity:1;stroke:none;font-family:Sans"
       x="117.9252"
       y="149.07832"
       id="text4008-8"
       sodipodi:linespacing="125%"><tspan
         sodipodi:role="line"
         id="tspan4010-4"
         x="117.9252"
         y="149.07832"
         style="font-size:16px;fill:#333333">Email</tspan></text>
    <rect
       style="fill:#ffffff;fill-opacity:1;stroke-width:0;stroke-miterlimit:4;stroke-dasharray:none"
       id="rect4012-5"
       width="204.05081"
       height="22.223356"
       x="39.126984"
       y="182.72237" />
    <text
       xml:space="preserve"
       style="font-size:13px;font-style:normal;font-weight:normal;line-height:125%;letter-spacing:0px;word-spacing:0px;fill:#333333;fill-opacity:1;stroke:none;font-family:Sans"
       x="88.384239"
       y="190.37418"
       id="text4008-8-2"
       sodipodi:linespacing="125%"><tspan
         sodipodi:role="line"
         id="tspan4010-4-3"
         x="88.384239"
         y="190.37418"
         style="font-size:16px;fill:#333333">Password</tspan></text>
    <text
       xml:space="preserve"
       style="font-size:13px;font-style:normal;font-weight:normal;line-height:125%;letter-spacing:0px;word-spacing:0px;fill:#2c3e50;fill-opacity:1;stroke:none;font-family:Sans"
       x="49.605766"
       y="204.00137"
       id="text4008-8-2-4"
       sodipodi:linespacing="125%"><tspan
         sodipodi:role="line"
         id="tspan4010-4-3-2"
         x="49.605766"
         y="204.00137"
         style="font-size:10px;fill:#003380;fill-opacity:1">Forgot your password?</tspan></text>
    <g
       transform="matrix(0.35351007,0,0,0.35351007,-17.141223,-198.9869)"
       style="font-size:13px;font-style:normal;font-weight:normal;line-height:125%;letter-spacing:0px;word-spacing:0px;fill:#ffffff;fill-opacity:1;stroke:none;font-family:Sans"
       id="flowRoot3103"
       inkscape:export-filename="/home/edulix/Downloads/logo/propuestas.png"
       inkscape:export-xdpi="214.28596"
       inkscape:export-ydpi="214.28596">
      <g
         id="g3134"
         transform="matrix(1.0322758,0,0,1.0322758,21.028212,-21.000808)"
         style="fill:#ffffff">
        <path
           id="path3112"
           style="font-size:64px;fill:#ffffff"
           d="m 166.3125,596.91695 -8.5625,23.21875 17.15625,0 -8.59375,-23.21875 m -3.5625,-6.21875 7.15625,0 17.78125,46.65625 -6.5625,0 -4.25,-11.96875 -21.03125,0 -4.25,11.96875 -6.65625,0 17.8125,-46.65625"
           inkscape:connector-curvature="0" />
        <path
           inkscape:connector-curvature="0"
           id="path3114"
           style="font-size:64px;fill:#ffffff"
           d="m 212.10875,619.4482 c -3e-5,-4.16665 -0.86461,-7.39581 -2.59375,-9.6875 -1.70836,-2.29164 -4.11461,-3.43747 -7.21875,-3.4375 -3.08335,3e-5 -5.4896,1.14586 -7.21875,3.4375 -1.70834,2.29169 -2.56251,5.52085 -2.5625,9.6875 -10e-6,4.14584 0.85416,7.36459 2.5625,9.65625 1.72915,2.29167 4.1354,3.4375 7.21875,3.4375 3.10414,0 5.51039,-1.14583 7.21875,-3.4375 1.72914,-2.29166 2.59372,-5.51041 2.59375,-9.65625 m 5.75,13.5625 c -3e-5,5.95833 -1.32295,10.38541 -3.96875,13.28125 -2.64586,2.91665 -6.69794,4.37498 -12.15625,4.375 -2.02085,-2e-5 -3.9271,-0.15627 -5.71875,-0.46875 -1.79168,-0.29168 -3.53126,-0.75002 -5.21875,-1.375 l 0,-5.59375 c 1.68749,0.91666 3.35416,1.59374 5,2.03125 1.64582,0.43749 3.3229,0.65624 5.03125,0.65625 3.77081,-1e-5 6.59373,-0.98959 8.46875,-2.96875 1.87497,-1.95834 2.81247,-4.92709 2.8125,-8.90625 l 0,-2.84375 c -1.18753,2.0625 -2.70836,3.60417 -4.5625,4.625 -1.85419,1.02083 -4.07294,1.53125 -6.65625,1.53125 -4.29168,0 -7.75001,-1.63542 -10.375,-4.90625 -2.625,-3.27083 -3.9375,-7.60416 -3.9375,-13 0,-5.41665 1.3125,-9.76039 3.9375,-13.03125 2.62499,-3.2708 6.08332,-4.90622 10.375,-4.90625 2.58331,3e-5 4.80206,0.51045 6.65625,1.53125 1.85414,1.02086 3.37497,2.56253 4.5625,4.625 l 0,-5.3125 5.75,0 0,30.65625" />
        <path
           inkscape:connector-curvature="0"
           id="path3116"
           style="font-size:64px;fill:#ffffff"
           d="m 238.12375,606.3857 c -3.08335,3e-5 -5.52085,1.20836 -7.3125,3.625 -1.79168,2.39585 -2.68751,5.68752 -2.6875,9.875 -1e-5,4.18751 0.88541,7.48959 2.65625,9.90625 1.79165,2.39583 4.23957,3.59375 7.34375,3.59375 3.06248,0 5.48956,-1.20833 7.28125,-3.625 1.79164,-2.41666 2.68747,-5.70832 2.6875,-9.875 -3e-5,-4.14582 -0.89586,-7.42706 -2.6875,-9.84375 -1.79169,-2.43747 -4.21877,-3.65622 -7.28125,-3.65625 m 0,-4.875 c 4.99998,3e-5 8.92705,1.62503 11.78125,4.875 2.85413,3.25002 4.28121,7.75002 4.28125,13.5 -4e-5,5.72917 -1.42712,10.22917 -4.28125,13.5 -2.8542,3.25 -6.78127,4.875 -11.78125,4.875 -5.02085,0 -8.95834,-1.625 -11.8125,-4.875 -2.83334,-3.27083 -4.25,-7.77083 -4.25,-13.5 0,-5.74998 1.41666,-10.24998 4.25,-13.5 2.85416,-3.24997 6.79165,-4.87497 11.8125,-4.875" />
        <path
           inkscape:connector-curvature="0"
           id="path3118"
           style="font-size:64px;fill:#ffffff"
           d="m 278.82625,607.72945 c -0.64586,-0.37497 -1.35419,-0.64581 -2.125,-0.8125 -0.75002,-0.18747 -1.58336,-0.28122 -2.5,-0.28125 -3.25002,3e-5 -5.75002,1.06253 -7.5,3.1875 -1.72918,2.10419 -2.59376,5.13544 -2.59375,9.09375 l 0,18.4375 -5.78125,0 0,-35 5.78125,0 0,5.4375 c 1.20832,-2.12497 2.78124,-3.69789 4.71875,-4.71875 1.93748,-1.04164 4.29165,-1.56247 7.0625,-1.5625 0.39581,3e-5 0.83331,0.0313 1.3125,0.0937 0.47914,0.0417 1.01039,0.11462 1.59375,0.21875 l 0.0312,5.90625" />
        <path
           inkscape:connector-curvature="0"
           id="path3120"
           style="font-size:64px;fill:#ffffff"
           d="m 297.39875,619.7607 c -4.64585,10e-6 -7.8646,0.53126 -9.65625,1.59375 -1.79168,1.06251 -2.68751,2.87501 -2.6875,5.4375 -1e-5,2.04167 0.66666,3.66667 2,4.875 1.35415,1.1875 3.18749,1.78125 5.5,1.78125 3.18748,0 5.73956,-1.125 7.65625,-3.375 1.93747,-2.27083 2.90622,-5.28124 2.90625,-9.03125 l 0,-1.28125 -5.71875,0 m 11.46875,-2.375 0,19.96875 -5.75,0 0,-5.3125 c -1.31253,2.125 -2.94794,3.69791 -4.90625,4.71875 -1.95835,1 -4.35419,1.5 -7.1875,1.5 -3.58335,0 -6.43751,-1 -8.5625,-3 -2.10417,-2.02083 -3.15625,-4.71875 -3.15625,-8.09375 0,-3.93749 1.31249,-6.90624 3.9375,-8.90625 2.64582,-1.99998 6.58332,-2.99998 11.8125,-3 l 8.0625,0 0,-0.5625 c -3e-5,-2.64581 -0.87503,-4.68748 -2.625,-6.125 -1.72919,-1.45831 -4.16669,-2.18747 -7.3125,-2.1875 -2.00002,3e-5 -3.94793,0.23961 -5.84375,0.71875 -1.89584,0.47919 -3.71876,1.19794 -5.46875,2.15625 l 0,-5.3125 c 2.10416,-0.81247 4.14582,-1.41664 6.125,-1.8125 1.97915,-0.41663 3.90623,-0.62497 5.78125,-0.625 5.06248,3e-5 8.84372,1.31253 11.34375,3.9375 2.49997,2.62503 3.74997,6.60419 3.75,11.9375" />
        <path
           inkscape:connector-curvature="0"
           id="path3122"
           style="font-size:64px;fill:#ffffff"
           d="M 341.4025,637.35445 323.59,590.6982 l 6.59375,0 14.78125,39.28125 14.8125,-39.28125 6.5625,0 -17.78125,46.65625 -7.15625,0" />
        <path
           inkscape:connector-curvature="0"
           id="path3124"
           style="font-size:64px;fill:#ffffff"
           d="m 376.2925,606.3857 c -3.08335,3e-5 -5.52085,1.20836 -7.3125,3.625 -1.79168,2.39585 -2.68751,5.68752 -2.6875,9.875 -1e-5,4.18751 0.88541,7.48959 2.65625,9.90625 1.79165,2.39583 4.23957,3.59375 7.34375,3.59375 3.06248,0 5.48956,-1.20833 7.28125,-3.625 1.79164,-2.41666 2.68747,-5.70832 2.6875,-9.875 -3e-5,-4.14582 -0.89586,-7.42706 -2.6875,-9.84375 -1.79169,-2.43747 -4.21877,-3.65622 -7.28125,-3.65625 m 0,-4.875 c 4.99998,3e-5 8.92705,1.62503 11.78125,4.875 2.85413,3.25002 4.28121,7.75002 4.28125,13.5 -4e-5,5.72917 -1.42712,10.22917 -4.28125,13.5 -2.8542,3.25 -6.78127,4.875 -11.78125,4.875 -5.02085,0 -8.95834,-1.625 -11.8125,-4.875 -2.83334,-3.27083 -4.25,-7.77083 -4.25,-13.5 0,-5.74998 1.41666,-10.24998 4.25,-13.5 2.85416,-3.24997 6.79165,-4.87497 11.8125,-4.875" />
        <path
           inkscape:connector-curvature="0"
           id="path3126"
           style="font-size:64px;fill:#ffffff"
           d="m 402.40125,592.41695 0,9.9375 11.84375,0 0,4.46875 -11.84375,0 0,19 c -1e-5,2.85417 0.3854,4.6875 1.15625,5.5 0.79165,0.8125 2.3854,1.21875 4.78125,1.21875 l 5.90625,0 0,4.8125 -5.90625,0 c -4.43751,0 -7.50001,-0.82292 -9.1875,-2.46875 -1.68751,-1.66667 -2.53126,-4.6875 -2.53125,-9.0625 l 0,-19 -4.21875,0 0,-4.46875 4.21875,0 0,-9.9375 5.78125,0" />
        <path
           inkscape:connector-curvature="0"
           id="path3128"
           style="font-size:64px;fill:#ffffff"
           d="m 418.41125,602.35445 5.75,0 0,35 -5.75,0 0,-35 m 0,-13.625 5.75,0 0,7.28125 -5.75,0 0,-7.28125" />
        <path
           inkscape:connector-curvature="0"
           id="path3130"
           style="font-size:64px;fill:#ffffff"
           d="m 458.4,616.22945 0,21.125 -5.75,0 0,-20.9375 c -3e-5,-3.31248 -0.64586,-5.79164 -1.9375,-7.4375 -1.29169,-1.64581 -3.22919,-2.46872 -5.8125,-2.46875 -3.10419,3e-5 -5.5521,0.98961 -7.34375,2.96875 -1.79168,1.97919 -2.68751,4.6771 -2.6875,8.09375 l 0,19.78125 -5.78125,0 0,-35 5.78125,0 0,5.4375 c 1.37499,-2.10414 2.98957,-3.67705 4.84375,-4.71875 1.87498,-1.04164 4.03123,-1.56247 6.46875,-1.5625 4.02081,3e-5 7.06247,1.25003 9.125,3.75 2.06247,2.47919 3.09371,6.13544 3.09375,10.96875" />
        <path
           inkscape:connector-curvature="0"
           id="path3132"
           style="font-size:64px;fill:#ffffff"
           d="m 487.82125,619.4482 c -3e-5,-4.16665 -0.86461,-7.39581 -2.59375,-9.6875 -1.70836,-2.29164 -4.11461,-3.43747 -7.21875,-3.4375 -3.08335,3e-5 -5.4896,1.14586 -7.21875,3.4375 -1.70834,2.29169 -2.56251,5.52085 -2.5625,9.6875 -1e-5,4.14584 0.85416,7.36459 2.5625,9.65625 1.72915,2.29167 4.1354,3.4375 7.21875,3.4375 3.10414,0 5.51039,-1.14583 7.21875,-3.4375 1.72914,-2.29166 2.59372,-5.51041 2.59375,-9.65625 m 5.75,13.5625 c -3e-5,5.95833 -1.32295,10.38541 -3.96875,13.28125 -2.64586,2.91665 -6.69794,4.37498 -12.15625,4.375 -2.02085,-2e-5 -3.9271,-0.15627 -5.71875,-0.46875 -1.79168,-0.29168 -3.53126,-0.75002 -5.21875,-1.375 l 0,-5.59375 c 1.68749,0.91666 3.35416,1.59374 5,2.03125 1.64582,0.43749 3.3229,0.65624 5.03125,0.65625 3.77081,-1e-5 6.59373,-0.98959 8.46875,-2.96875 1.87497,-1.95834 2.81247,-4.92709 2.8125,-8.90625 l 0,-2.84375 c -1.18753,2.0625 -2.70836,3.60417 -4.5625,4.625 -1.85419,1.02083 -4.07294,1.53125 -6.65625,1.53125 -4.29168,0 -7.75001,-1.63542 -10.375,-4.90625 -2.625,-3.27083 -3.9375,-7.60416 -3.9375,-13 0,-5.41665 1.3125,-9.76039 3.9375,-13.03125 2.62499,-3.2708 6.08332,-4.90622 10.375,-4.90625 2.58331,3e-5 4.80206,0.51045 6.65625,1.53125 1.85414,1.02086 3.37497,2.56253 4.5625,4.625 l 0,-5.3125 5.75,0 0,30.65625" />
      </g>
    </g>
    <rect
       style="fill:#00a489;fill-opacity:1;stroke-width:0;stroke-miterlimit:4;stroke-dasharray:none"
       id="rect3295"
       width="81.601898"
       height="21.096811"
       x="579.77045"
       y="10.494883"
       ry="3.2142856" />
    <text
       sodipodi:linespacing="125%"
       id="text3291"
       y="24.336563"
       x="370.05591"
       style="font-size:13px;font-style:normal;font-weight:normal;line-height:125%;letter-spacing:0px;word-spacing:0px;fill:#ffffff;fill-opacity:1;stroke:none;font-family:Sans"
       xml:space="preserve"><tspan
         style="font-size:12px;fill:#ffffff"
         y="24.336563"
         x="370.05591"
         id="tspan3293"
         sodipodi:role="line">Home     Features     Help                Free sign up    Login</tspan></text>
    <rect
       ry="3.5714285"
       y="180.28366"
       x="173.38225"
       height="22.223356"
       width="251.74367"
       id="rect5511"
       style="fill:none;stroke:#bbbbbb;stroke-width:1.2218076;stroke-miterlimit:4;stroke-opacity:0.41062802;stroke-dasharray:none" />
    <text
       sodipodi:linespacing="125%"
       id="text5513"
       y="167.121"
       x="172.32593"
       style="font-size:13px;font-style:normal;font-weight:normal;line-height:125%;letter-spacing:0px;word-spacing:0px;fill:#cc2929;fill-opacity:1;stroke:none;font-family:Sans"
       xml:space="preserve"><tspan
         style="font-size:10px;fill:#cc2929;fill-opacity:1"
         y="167.121"
         x="172.32593"
         id="tspan5515"
         sodipodi:role="line">Please enter a valid email address</tspan></text>
    <flowRoot
       xml:space="preserve"
       id="flowRoot5517"
       style="font-size:13px;font-style:normal;font-weight:normal;line-height:125%;letter-spacing:0px;word-spacing:0px;fill:#000000;fill-opacity:1;stroke:none;font-family:Sans"><flowRegion
         id="flowRegion5519"><rect
           id="rect5521"
           width="219.28572"
           height="133.57143"
           x="494.28571"
           y="131.64789" /></flowRegion><flowPara
         id="flowPara5523"
         style="font-size:11px;font-weight:bold;fill:#333333">Dont have an account?</flowPara><flowPara
         style="font-size:11px;font-weight:normal;fill:#333333"
         id="flowPara5529" /><flowPara
         style="font-size:11px;font-weight:normal;fill:#003380"
         id="flowPara5758">Sign up for free </flowPara><flowPara
         style="font-size:11px;font-weight:normal;fill:#333333"
         id="flowPara5535">It only takes a few minutes</flowPara><flowPara
         style="font-size:11px;font-weight:normal;fill:#333333"
         id="flowPara5553" /><flowPara
         style="font-size:11px;font-weight:normal;fill:#333333"
         id="flowPara5753">Looking to create an election?</flowPara><flowPara
         style="font-size:11px;font-weight:normal"
         id="flowPara6732"><flowSpan
           style="fill:#333333"
           id="flowSpan8255">Take a look at the</flowSpan><flowSpan
           style="fill:#003380"
           id="flowSpan5555"> step by step guide</flowSpan></flowPara></flowRoot>    <rect
       ry="4.737874"
       y="224.49487"
       x="173.77045"
       height="31.096811"
       width="252.31619"
       id="rect5559"
       style="fill:#00a489;fill-opacity:1;stroke-width:0;stroke-miterlimit:4;stroke-dasharray:none" />
    <text
       xml:space="preserve"
       style="font-size:13px;font-style:normal;font-weight:normal;line-height:125%;letter-spacing:0px;word-spacing:0px;fill:#ffffff;fill-opacity:1;stroke:none;font-family:Sans"
       x="270.14319"
       y="244.47635"
       id="text4008-8-2-4-8"
       sodipodi:linespacing="125%"><tspan
         sodipodi:role="line"
         id="tspan4010-4-3-2-3"
         x="270.14319"
         y="244.47635"
         style="font-size:18px;fill:#ffffff">Enter</tspan></text>
    <text
       xml:space="preserve"
       style="font-size:13px;font-style:normal;font-weight:normal;line-height:125%;letter-spacing:0px;word-spacing:0px;fill:#4d4d4d;fill-opacity:1;stroke:none;font-family:Sans"
       x="39.335033"
       y="333.75793"
       id="text5563"
       sodipodi:linespacing="125%"><tspan
         sodipodi:role="line"
         x="39.335033"
         y="333.75793"
         id="tspan5567"
         style="font-size:12px;font-weight:bold;fill:#4d4d4d">Contact</tspan></text>
    <text
       sodipodi:linespacing="125%"
       id="text5571"
       y="363.75793"
       x="39.335033"
       style="font-size:13px;font-style:normal;font-weight:normal;line-height:125%;letter-spacing:0px;word-spacing:0px;fill:#003380;fill-opacity:1;stroke:none;font-family:Sans"
       xml:space="preserve"><tspan
         style="font-size:12px;fill:#003380;fill-opacity:1"
         y="363.75793"
         x="39.335033"
         sodipodi:role="line"
         id="tspan5575">Contact support</tspan><tspan
         style="font-size:12px;fill:#003380;fill-opacity:1"
         y="378.75793"
         x="39.335033"
         sodipodi:role="line"
         id="tspan5579">Contact sales</tspan><tspan
         style="font-size:12px;fill:#333333;fill-opacity:1"
         y="393.75793"
         x="39.335033"
         sodipodi:role="line"
         id="tspan5581">Call sales </tspan><tspan
         style="font-size:12px;fill:#333333;fill-opacity:1"
         y="408.75793"
         x="39.335033"
         sodipodi:role="line"
         id="tspan5690">+34 634 571 634</tspan><tspan
         style="font-size:12px;fill:#003380;fill-opacity:1"
         y="423.75793"
         x="39.335033"
         sodipodi:role="line"
         id="tspan5583" /><tspan
         style="font-size:12px;fill:#003380;fill-opacity:1"
         y="438.75793"
         x="39.335033"
         sodipodi:role="line"
         id="tspan5585" /></text>
    <text
       sodipodi:linespacing="125%"
       id="text5587"
       y="333.75793"
       x="175.33504"
       style="font-size:13px;font-style:normal;font-weight:normal;line-height:125%;letter-spacing:0px;word-spacing:0px;fill:#4d4d4d;fill-opacity:1;stroke:none;font-family:Sans"
       xml:space="preserve"><tspan
         style="font-size:12px;font-weight:bold;fill:#4d4d4d"
         id="tspan5589"
         y="333.75793"
         x="175.33504"
         sodipodi:role="line">What we do</tspan></text>
    <text
       xml:space="preserve"
       style="font-size:13px;font-style:normal;font-weight:normal;line-height:125%;letter-spacing:0px;word-spacing:0px;fill:#003380;fill-opacity:1;stroke:none;font-family:Sans"
       x="175.33504"
       y="363.75793"
       id="text5591"
       sodipodi:linespacing="125%"><tspan
         sodipodi:role="line"
         x="175.33504"
         y="363.75793"
         style="font-size:12px;fill:#003380;fill-opacity:1"
         id="tspan5616">Pricing</tspan><tspan
         sodipodi:role="line"
         x="175.33504"
         y="378.75793"
         style="font-size:12px;fill:#003380;fill-opacity:1"
         id="tspan7980">Overview</tspan><tspan
         sodipodi:role="line"
         x="175.33504"
         y="393.75793"
         style="font-size:12px;fill:#003380;fill-opacity:1"
         id="tspan5618">Features tour</tspan><tspan
         sodipodi:role="line"
         x="175.33504"
         y="408.75793"
         style="font-size:12px;fill:#003380;fill-opacity:1"
         id="tspan8206">Case studies</tspan></text>
    <text
       xml:space="preserve"
       style="font-size:13px;font-style:normal;font-weight:normal;line-height:125%;letter-spacing:0px;word-spacing:0px;fill:#4d4d4d;fill-opacity:1;stroke:none;font-family:Sans"
       x="307.33502"
       y="333.75793"
       id="text5622"
       sodipodi:linespacing="125%"><tspan
         sodipodi:role="line"
         x="307.33502"
         y="333.75793"
         id="tspan5624"
         style="font-size:12px;font-weight:bold;fill:#4d4d4d">Community</tspan></text>
    <text
       sodipodi:linespacing="125%"
       id="text5626"
       y="363.75793"
       x="307.33502"
       style="font-size:13px;font-style:normal;font-weight:normal;line-height:125%;letter-spacing:0px;word-spacing:0px;fill:#003380;fill-opacity:1;stroke:none;font-family:Sans"
       xml:space="preserve"><tspan
         style="font-size:12px;fill:#003380;fill-opacity:1"
         y="363.75793"
         x="307.33502"
         sodipodi:role="line"
         id="tspan5686">Blog</tspan><tspan
         style="font-size:12px;fill:#003380;fill-opacity:1"
         y="378.75793"
         x="307.33502"
         sodipodi:role="line"
         id="tspan5684">Mailing list</tspan><tspan
         style="font-size:12px;fill:#003380;fill-opacity:1"
         y="393.75793"
         x="307.33502"
         sodipodi:role="line"
         id="tspan5647">Source code</tspan><tspan
         style="font-size:12px;fill:#003380;fill-opacity:1"
         y="408.75793"
         x="307.33502"
         sodipodi:role="line"
         id="tspan5649">Events</tspan><tspan
         style="font-size:12px;fill:#003380;fill-opacity:1"
         y="423.75793"
         x="307.33502"
         sodipodi:role="line"
         id="tspan5706">Community website</tspan></text>
    <text
       sodipodi:linespacing="125%"
       id="text5651"
       y="333.75793"
       x="457.33502"
       style="font-size:13px;font-style:normal;font-weight:normal;line-height:125%;letter-spacing:0px;word-spacing:0px;fill:#4d4d4d;fill-opacity:1;stroke:none;font-family:Sans"
       xml:space="preserve"><tspan
         style="font-size:12px;font-weight:bold;fill:#4d4d4d"
         id="tspan5653"
         y="333.75793"
         x="457.33502"
         sodipodi:role="line">Support</tspan></text>
    <text
       xml:space="preserve"
       style="font-size:13px;font-style:normal;font-weight:normal;line-height:125%;letter-spacing:0px;word-spacing:0px;fill:#003380;fill-opacity:1;stroke:none;font-family:Sans"
       x="457.33502"
       y="363.75793"
       id="text5655"
       sodipodi:linespacing="125%"><tspan
         id="tspan5663"
         sodipodi:role="line"
         x="457.33502"
         y="363.75793"
         style="font-size:12px;fill:#003380;fill-opacity:1">Help center</tspan><tspan
         sodipodi:role="line"
         x="457.33502"
         y="378.75793"
         style="font-size:12px;fill:#003380;fill-opacity:1"
         id="tspan5674">System status</tspan><tspan
         sodipodi:role="line"
         x="457.33502"
         y="393.75793"
         style="font-size:12px;fill:#003380;fill-opacity:1"
         id="tspan5692">Videos</tspan><tspan
         sodipodi:role="line"
         x="457.33502"
         y="408.75793"
         style="font-size:12px;fill:#003380;fill-opacity:1"
         id="tspan5678">Developers</tspan></text>
    <path
       sodipodi:type="arc"
       style="fill:#2c3e50;fill-opacity:1;stroke:none"
       id="path5696"
       sodipodi:cx="42.142857"
       sodipodi:cy="381.64789"
       sodipodi:rx="9.2857141"
       sodipodi:ry="9.2857141"
       d="m 51.428571,381.64789 a 9.2857141,9.2857141 0 1 1 -18.571429,0 9.2857141,9.2857141 0 1 1 18.571429,0 z"
       transform="translate(6,48)" />
    <path
       d="m 51.428571,381.64789 a 9.2857141,9.2857141 0 1 1 -18.571429,0 9.2857141,9.2857141 0 1 1 18.571429,0 z"
       sodipodi:ry="9.2857141"
       sodipodi:rx="9.2857141"
       sodipodi:cy="381.64789"
       sodipodi:cx="42.142857"
       id="path5698"
       style="fill:#3771c8;fill-opacity:1;stroke:none"
       sodipodi:type="arc"
       transform="translate(30,48)" />
    <path
       transform="translate(54,48)"
       sodipodi:type="arc"
       style="fill:#c83737;fill-opacity:1;stroke:none"
       id="path5700"
       sodipodi:cx="42.142857"
       sodipodi:cy="381.64789"
       sodipodi:rx="9.2857141"
       sodipodi:ry="9.2857141"
       d="m 51.428571,381.64789 a 9.2857141,9.2857141 0 1 1 -18.571429,0 9.2857141,9.2857141 0 1 1 18.571429,0 z" />
    <path
       d="m 51.428571,381.64789 a 9.2857141,9.2857141 0 1 1 -18.571429,0 9.2857141,9.2857141 0 1 1 18.571429,0 z"
       sodipodi:ry="9.2857141"
       sodipodi:rx="9.2857141"
       sodipodi:cy="381.64789"
       sodipodi:cx="42.142857"
       id="path5702"
       style="fill:#8080ff;fill-opacity:1;stroke:none"
       sodipodi:type="arc"
       transform="translate(78,48)" />
    <text
       xml:space="preserve"
       style="font-size:13px;font-style:normal;font-weight:normal;line-height:125%;letter-spacing:0px;word-spacing:0px;fill:#4d4d4d;fill-opacity:1;stroke:none;font-family:Sans"
       x="577.33502"
       y="333.75793"
       id="text5708"
       sodipodi:linespacing="125%"><tspan
         sodipodi:role="line"
         x="577.33502"
         y="333.75793"
         id="tspan5710"
         style="font-size:12px;font-weight:bold;fill:#4d4d4d">About us</tspan></text>
    <text
       sodipodi:linespacing="125%"
       id="text5712"
       y="363.75793"
       x="577.33502"
       style="font-size:13px;font-style:normal;font-weight:normal;line-height:125%;letter-spacing:0px;word-spacing:0px;fill:#003380;fill-opacity:1;stroke:none;font-family:Sans"
       xml:space="preserve"><tspan
         style="font-size:12px;fill:#003380;fill-opacity:1"
         y="363.75793"
         x="577.33502"
         sodipodi:role="line"
         id="tspan5731">Our team</tspan><tspan
         style="font-size:12px;fill:#003380;fill-opacity:1"
         y="378.75793"
         x="577.33502"
         sodipodi:role="line"
         id="tspan8212">Election authorities</tspan><tspan
         style="font-size:12px;fill:#003380;fill-opacity:1"
         y="393.75793"
         x="577.33502"
         sodipodi:role="line"
         id="tspan5735">Terms of service</tspan><tspan
         style="font-size:12px;fill:#003380;fill-opacity:1"
         y="408.75793"
         x="577.33502"
         sodipodi:role="line"
         id="tspan5739">Press center</tspan><tspan
         style="font-size:12px;fill:#003380;fill-opacity:1"
         y="423.75793"
         x="577.33502"
         sodipodi:role="line"
         id="tspan5737">Privacy &amp; security</tspan></text>
    <rect
       y="599.7832"
       x="0"
       height="40.486576"
       width="237.63544"
       id="rect5770"
       style="fill:#2c3e50;fill-opacity:1;stroke-width:0;stroke-miterlimit:4;stroke-dasharray:none" />
    <text
       sodipodi:linespacing="125%"
       id="text5772"
       y="670.33655"
       x="10.055908"
       style="font-size:13px;font-style:normal;font-weight:normal;line-height:125%;letter-spacing:0px;word-spacing:0px;fill:#2c3e50;fill-opacity:1;stroke:none;font-family:Sans"
       xml:space="preserve"><tspan
         style="font-size:16px;fill:#2c3e50"
         y="670.33655"
         x="10.055908"
         id="tspan5774"
         sodipodi:role="line">Login to your Agora Voting</tspan><tspan
         style="font-size:16px;fill:#2c3e50"
         y="690.33655"
         x="10.055908"
         sodipodi:role="line"
         id="tspan5955">account</tspan></text>
    <rect
       ry="3.5714285"
       y="734.28369"
       x="13.382248"
       height="22.223356"
       width="204.05081"
       id="rect5776"
       style="fill:none;stroke:#cc2929;stroke-width:1.10000002;stroke-miterlimit:4;stroke-opacity:0.65217393;stroke-dasharray:none" />
    <text
       sodipodi:linespacing="125%"
       id="text5778"
       y="723.07831"
       x="13.925201"
       style="font-size:13px;font-style:normal;font-weight:normal;line-height:125%;letter-spacing:0px;word-spacing:0px;fill:#000000;fill-opacity:1;stroke:none;font-family:Sans"
       xml:space="preserve"><tspan
         style="font-size:16px;fill:#000000"
         y="723.07831"
         x="13.925201"
         id="tspan5780"
         sodipodi:role="line">Email</tspan></text>
    <text
       sodipodi:linespacing="125%"
       id="text5784"
       y="790.37415"
       x="10.384239"
       style="font-size:13px;font-style:normal;font-weight:normal;line-height:125%;letter-spacing:0px;word-spacing:0px;fill:#000000;fill-opacity:1;stroke:none;font-family:Sans"
       xml:space="preserve"><tspan
         style="font-size:16px;fill:#000000"
         y="790.37415"
         x="10.384239"
         id="tspan5786"
         sodipodi:role="line">Password</tspan></text>
    <text
       sodipodi:linespacing="125%"
       id="text5788"
       y="804.00134"
       x="11.605766"
       style="font-size:13px;font-style:normal;font-weight:normal;line-height:125%;letter-spacing:0px;word-spacing:0px;fill:#2c3e50;fill-opacity:1;stroke:none;font-family:Sans"
       xml:space="preserve"><tspan
         style="font-size:10px;fill:#003380;fill-opacity:1"
         y="804.00134"
         x="11.605766"
         id="tspan5790"
         sodipodi:role="line">Forgot your password?</tspan></text>
    <g
       inkscape:export-ydpi="214.28596"
       inkscape:export-xdpi="214.28596"
       inkscape:export-filename="/home/edulix/Downloads/logo/propuestas.png"
       id="g5792"
       style="font-size:13px;font-style:normal;font-weight:normal;line-height:125%;letter-spacing:0px;word-spacing:0px;fill:#ffffff;fill-opacity:1;stroke:none;font-family:Sans"
       transform="matrix(0.35351007,0,0,0.35351007,-27.141223,401.0131)">
      <g
         style="fill:#ffffff"
         transform="matrix(1.0322758,0,0,1.0322758,21.028212,-21.000808)"
         id="g5794">
        <path
           inkscape:connector-curvature="0"
           d="m 166.3125,596.91695 -8.5625,23.21875 17.15625,0 -8.59375,-23.21875 m -3.5625,-6.21875 7.15625,0 17.78125,46.65625 -6.5625,0 -4.25,-11.96875 -21.03125,0 -4.25,11.96875 -6.65625,0 17.8125,-46.65625"
           style="font-size:64px;fill:#ffffff"
           id="path5796" />
        <path
           d="m 212.10875,619.4482 c -3e-5,-4.16665 -0.86461,-7.39581 -2.59375,-9.6875 -1.70836,-2.29164 -4.11461,-3.43747 -7.21875,-3.4375 -3.08335,3e-5 -5.4896,1.14586 -7.21875,3.4375 -1.70834,2.29169 -2.56251,5.52085 -2.5625,9.6875 -10e-6,4.14584 0.85416,7.36459 2.5625,9.65625 1.72915,2.29167 4.1354,3.4375 7.21875,3.4375 3.10414,0 5.51039,-1.14583 7.21875,-3.4375 1.72914,-2.29166 2.59372,-5.51041 2.59375,-9.65625 m 5.75,13.5625 c -3e-5,5.95833 -1.32295,10.38541 -3.96875,13.28125 -2.64586,2.91665 -6.69794,4.37498 -12.15625,4.375 -2.02085,-2e-5 -3.9271,-0.15627 -5.71875,-0.46875 -1.79168,-0.29168 -3.53126,-0.75002 -5.21875,-1.375 l 0,-5.59375 c 1.68749,0.91666 3.35416,1.59374 5,2.03125 1.64582,0.43749 3.3229,0.65624 5.03125,0.65625 3.77081,-1e-5 6.59373,-0.98959 8.46875,-2.96875 1.87497,-1.95834 2.81247,-4.92709 2.8125,-8.90625 l 0,-2.84375 c -1.18753,2.0625 -2.70836,3.60417 -4.5625,4.625 -1.85419,1.02083 -4.07294,1.53125 -6.65625,1.53125 -4.29168,0 -7.75001,-1.63542 -10.375,-4.90625 -2.625,-3.27083 -3.9375,-7.60416 -3.9375,-13 0,-5.41665 1.3125,-9.76039 3.9375,-13.03125 2.62499,-3.2708 6.08332,-4.90622 10.375,-4.90625 2.58331,3e-5 4.80206,0.51045 6.65625,1.53125 1.85414,1.02086 3.37497,2.56253 4.5625,4.625 l 0,-5.3125 5.75,0 0,30.65625"
           style="font-size:64px;fill:#ffffff"
           id="path5798"
           inkscape:connector-curvature="0" />
        <path
           d="m 238.12375,606.3857 c -3.08335,3e-5 -5.52085,1.20836 -7.3125,3.625 -1.79168,2.39585 -2.68751,5.68752 -2.6875,9.875 -1e-5,4.18751 0.88541,7.48959 2.65625,9.90625 1.79165,2.39583 4.23957,3.59375 7.34375,3.59375 3.06248,0 5.48956,-1.20833 7.28125,-3.625 1.79164,-2.41666 2.68747,-5.70832 2.6875,-9.875 -3e-5,-4.14582 -0.89586,-7.42706 -2.6875,-9.84375 -1.79169,-2.43747 -4.21877,-3.65622 -7.28125,-3.65625 m 0,-4.875 c 4.99998,3e-5 8.92705,1.62503 11.78125,4.875 2.85413,3.25002 4.28121,7.75002 4.28125,13.5 -4e-5,5.72917 -1.42712,10.22917 -4.28125,13.5 -2.8542,3.25 -6.78127,4.875 -11.78125,4.875 -5.02085,0 -8.95834,-1.625 -11.8125,-4.875 -2.83334,-3.27083 -4.25,-7.77083 -4.25,-13.5 0,-5.74998 1.41666,-10.24998 4.25,-13.5 2.85416,-3.24997 6.79165,-4.87497 11.8125,-4.875"
           style="font-size:64px;fill:#ffffff"
           id="path5800"
           inkscape:connector-curvature="0" />
        <path
           d="m 278.82625,607.72945 c -0.64586,-0.37497 -1.35419,-0.64581 -2.125,-0.8125 -0.75002,-0.18747 -1.58336,-0.28122 -2.5,-0.28125 -3.25002,3e-5 -5.75002,1.06253 -7.5,3.1875 -1.72918,2.10419 -2.59376,5.13544 -2.59375,9.09375 l 0,18.4375 -5.78125,0 0,-35 5.78125,0 0,5.4375 c 1.20832,-2.12497 2.78124,-3.69789 4.71875,-4.71875 1.93748,-1.04164 4.29165,-1.56247 7.0625,-1.5625 0.39581,3e-5 0.83331,0.0313 1.3125,0.0937 0.47914,0.0417 1.01039,0.11462 1.59375,0.21875 l 0.0312,5.90625"
           style="font-size:64px;fill:#ffffff"
           id="path5802"
           inkscape:connector-curvature="0" />
        <path
           d="m 297.39875,619.7607 c -4.64585,10e-6 -7.8646,0.53126 -9.65625,1.59375 -1.79168,1.06251 -2.68751,2.87501 -2.6875,5.4375 -1e-5,2.04167 0.66666,3.66667 2,4.875 1.35415,1.1875 3.18749,1.78125 5.5,1.78125 3.18748,0 5.73956,-1.125 7.65625,-3.375 1.93747,-2.27083 2.90622,-5.28124 2.90625,-9.03125 l 0,-1.28125 -5.71875,0 m 11.46875,-2.375 0,19.96875 -5.75,0 0,-5.3125 c -1.31253,2.125 -2.94794,3.69791 -4.90625,4.71875 -1.95835,1 -4.35419,1.5 -7.1875,1.5 -3.58335,0 -6.43751,-1 -8.5625,-3 -2.10417,-2.02083 -3.15625,-4.71875 -3.15625,-8.09375 0,-3.93749 1.31249,-6.90624 3.9375,-8.90625 2.64582,-1.99998 6.58332,-2.99998 11.8125,-3 l 8.0625,0 0,-0.5625 c -3e-5,-2.64581 -0.87503,-4.68748 -2.625,-6.125 -1.72919,-1.45831 -4.16669,-2.18747 -7.3125,-2.1875 -2.00002,3e-5 -3.94793,0.23961 -5.84375,0.71875 -1.89584,0.47919 -3.71876,1.19794 -5.46875,2.15625 l 0,-5.3125 c 2.10416,-0.81247 4.14582,-1.41664 6.125,-1.8125 1.97915,-0.41663 3.90623,-0.62497 5.78125,-0.625 5.06248,3e-5 8.84372,1.31253 11.34375,3.9375 2.49997,2.62503 3.74997,6.60419 3.75,11.9375"
           style="font-size:64px;fill:#ffffff"
           id="path5804"
           inkscape:connector-curvature="0" />
        <path
           d="M 341.4025,637.35445 323.59,590.6982 l 6.59375,0 14.78125,39.28125 14.8125,-39.28125 6.5625,0 -17.78125,46.65625 -7.15625,0"
           style="font-size:64px;fill:#ffffff"
           id="path5806"
           inkscape:connector-curvature="0" />
        <path
           d="m 376.2925,606.3857 c -3.08335,3e-5 -5.52085,1.20836 -7.3125,3.625 -1.79168,2.39585 -2.68751,5.68752 -2.6875,9.875 -1e-5,4.18751 0.88541,7.48959 2.65625,9.90625 1.79165,2.39583 4.23957,3.59375 7.34375,3.59375 3.06248,0 5.48956,-1.20833 7.28125,-3.625 1.79164,-2.41666 2.68747,-5.70832 2.6875,-9.875 -3e-5,-4.14582 -0.89586,-7.42706 -2.6875,-9.84375 -1.79169,-2.43747 -4.21877,-3.65622 -7.28125,-3.65625 m 0,-4.875 c 4.99998,3e-5 8.92705,1.62503 11.78125,4.875 2.85413,3.25002 4.28121,7.75002 4.28125,13.5 -4e-5,5.72917 -1.42712,10.22917 -4.28125,13.5 -2.8542,3.25 -6.78127,4.875 -11.78125,4.875 -5.02085,0 -8.95834,-1.625 -11.8125,-4.875 -2.83334,-3.27083 -4.25,-7.77083 -4.25,-13.5 0,-5.74998 1.41666,-10.24998 4.25,-13.5 2.85416,-3.24997 6.79165,-4.87497 11.8125,-4.875"
           style="font-size:64px;fill:#ffffff"
           id="path5808"
           inkscape:connector-curvature="0" />
        <path
           d="m 402.40125,592.41695 0,9.9375 11.84375,0 0,4.46875 -11.84375,0 0,19 c -1e-5,2.85417 0.3854,4.6875 1.15625,5.5 0.79165,0.8125 2.3854,1.21875 4.78125,1.21875 l 5.90625,0 0,4.8125 -5.90625,0 c -4.43751,0 -7.50001,-0.82292 -9.1875,-2.46875 -1.68751,-1.66667 -2.53126,-4.6875 -2.53125,-9.0625 l 0,-19 -4.21875,0 0,-4.46875 4.21875,0 0,-9.9375 5.78125,0"
           style="font-size:64px;fill:#ffffff"
           id="path5810"
           inkscape:connector-curvature="0" />
        <path
           d="m 418.41125,602.35445 5.75,0 0,35 -5.75,0 0,-35 m 0,-13.625 5.75,0 0,7.28125 -5.75,0 0,-7.28125"
           style="font-size:64px;fill:#ffffff"
           id="path5812"
           inkscape:connector-curvature="0" />
        <path
           d="m 458.4,616.22945 0,21.125 -5.75,0 0,-20.9375 c -3e-5,-3.31248 -0.64586,-5.79164 -1.9375,-7.4375 -1.29169,-1.64581 -3.22919,-2.46872 -5.8125,-2.46875 -3.10419,3e-5 -5.5521,0.98961 -7.34375,2.96875 -1.79168,1.97919 -2.68751,4.6771 -2.6875,8.09375 l 0,19.78125 -5.78125,0 0,-35 5.78125,0 0,5.4375 c 1.37499,-2.10414 2.98957,-3.67705 4.84375,-4.71875 1.87498,-1.04164 4.03123,-1.56247 6.46875,-1.5625 4.02081,3e-5 7.06247,1.25003 9.125,3.75 2.06247,2.47919 3.09371,6.13544 3.09375,10.96875"
           style="font-size:64px;fill:#ffffff"
           id="path5814"
           inkscape:connector-curvature="0" />
        <path
           d="m 487.82125,619.4482 c -3e-5,-4.16665 -0.86461,-7.39581 -2.59375,-9.6875 -1.70836,-2.29164 -4.11461,-3.43747 -7.21875,-3.4375 -3.08335,3e-5 -5.4896,1.14586 -7.21875,3.4375 -1.70834,2.29169 -2.56251,5.52085 -2.5625,9.6875 -1e-5,4.14584 0.85416,7.36459 2.5625,9.65625 1.72915,2.29167 4.1354,3.4375 7.21875,3.4375 3.10414,0 5.51039,-1.14583 7.21875,-3.4375 1.72914,-2.29166 2.59372,-5.51041 2.59375,-9.65625 m 5.75,13.5625 c -3e-5,5.95833 -1.32295,10.38541 -3.96875,13.28125 -2.64586,2.91665 -6.69794,4.37498 -12.15625,4.375 -2.02085,-2e-5 -3.9271,-0.15627 -5.71875,-0.46875 -1.79168,-0.29168 -3.53126,-0.75002 -5.21875,-1.375 l 0,-5.59375 c 1.68749,0.91666 3.35416,1.59374 5,2.03125 1.64582,0.43749 3.3229,0.65624 5.03125,0.65625 3.77081,-1e-5 6.59373,-0.98959 8.46875,-2.96875 1.87497,-1.95834 2.81247,-4.92709 2.8125,-8.90625 l 0,-2.84375 c -1.18753,2.0625 -2.70836,3.60417 -4.5625,4.625 -1.85419,1.02083 -4.07294,1.53125 -6.65625,1.53125 -4.29168,0 -7.75001,-1.63542 -10.375,-4.90625 -2.625,-3.27083 -3.9375,-7.60416 -3.9375,-13 0,-5.41665 1.3125,-9.76039 3.9375,-13.03125 2.62499,-3.2708 6.08332,-4.90622 10.375,-4.90625 2.58331,3e-5 4.80206,0.51045 6.65625,1.53125 1.85414,1.02086 3.37497,2.56253 4.5625,4.625 l 0,-5.3125 5.75,0 0,30.65625"
           style="font-size:64px;fill:#ffffff"
           id="path5816"
           inkscape:connector-curvature="0" />
      </g>
    </g>
    <rect
       style="fill:none;stroke:#bbbbbb;stroke-width:1.10000002;stroke-miterlimit:4;stroke-opacity:0.41062802;stroke-dasharray:none"
       id="rect5824"
       width="204.05081"
       height="22.223356"
       x="13.382248"
       y="818.28369"
       ry="3.5714285" />
    <text
       xml:space="preserve"
       style="font-size:13px;font-style:normal;font-weight:normal;line-height:125%;letter-spacing:0px;word-spacing:0px;fill:#cc2929;fill-opacity:1;stroke:none;font-family:Sans"
       x="12.325928"
       y="767.12097"
       id="text5826"
       sodipodi:linespacing="125%"><tspan
         sodipodi:role="line"
         id="tspan5828"
         x="12.325928"
         y="767.12097"
         style="font-size:10px;fill:#cc2929;fill-opacity:1">Please enter a valid email address</tspan></text>
    <flowRoot
       style="font-size:13px;font-style:normal;font-weight:normal;line-height:125%;letter-spacing:0px;word-spacing:0px;fill:#000000;fill-opacity:1;stroke:none;font-family:Sans"
       id="flowRoot5830"
       xml:space="preserve"
       transform="translate(-480,780)"><flowRegion
         id="flowRegion5832"><rect
           y="131.64789"
           x="494.28571"
           height="133.57143"
           width="219.28572"
           id="rect5834" /></flowRegion><flowPara
         style="font-size:11px;font-weight:bold"
         id="flowPara5836">Dont have an account?</flowPara><flowPara
         id="flowPara5838"
         style="font-size:11px;font-weight:normal;fill:#0066ff" /><flowPara
         id="flowPara5840"
         style="font-size:11px;font-weight:normal;fill:#0066ff"><flowSpan
           id="flowSpan5842"
           style="fill:#003380">Sign up for free </flowSpan></flowPara><flowPara
         id="flowPara5844"
         style="font-size:11px;font-weight:normal">It only takes 5 minutes</flowPara><flowPara
         id="flowPara5846"
         style="font-size:11px;font-weight:normal" /><flowPara
         id="flowPara5848"
         style="font-size:11px;font-weight:normal">Take a look at the <flowSpan
   id="flowSpan5850"
   style="fill:#003380">step by step guide</flowSpan></flowPara></flowRoot>    <rect
       style="fill:#00a489;fill-opacity:1;stroke-width:0;stroke-miterlimit:4;stroke-dasharray:none"
       id="rect5852"
       width="203.03047"
       height="31.096811"
       x="13.770447"
       y="862.49487"
       ry="4.737874" />
    <text
       sodipodi:linespacing="125%"
       id="text5854"
       y="882.47632"
       x="86.143188"
       style="font-size:13px;font-style:normal;font-weight:normal;line-height:125%;letter-spacing:0px;word-spacing:0px;fill:#ffffff;fill-opacity:1;stroke:none;font-family:Sans"
       xml:space="preserve"><tspan
         style="font-size:18px;fill:#ffffff"
         y="882.47632"
         x="86.143188"
         id="tspan5856"
         sodipodi:role="line">Enter</tspan></text>
    <g
       id="g5950"
       transform="translate(-36,0)">
      <rect
         y="610.50507"
         x="239.42857"
         height="3.5714285"
         width="18.571428"
         id="rect5944"
         style="fill:#ffffff;fill-opacity:1;stroke:none" />
      <rect
         style="fill:#ffffff;fill-opacity:1;stroke:none"
         id="rect5946"
         width="18.571428"
         height="3.5714285"
         x="239.42857"
         y="618.50507" />
      <rect
         y="626.50507"
         x="239.42857"
         height="3.5714285"
         width="18.571428"
         id="rect5948"
         style="fill:#ffffff;fill-opacity:1;stroke:none" />
    </g>
    <text
       xml:space="preserve"
       style="font-size:13px;font-style:normal;font-weight:normal;line-height:125%;letter-spacing:0px;word-spacing:0px;fill:#2c3e50;fill-opacity:1;stroke:none;font-family:Sans"
       x="330.05591"
       y="670.33655"
       id="text5986"
       sodipodi:linespacing="125%"><tspan
         sodipodi:role="line"
         id="tspan5988"
         x="330.05591"
         y="670.33655"
         style="font-size:16px;fill:#2c3e50">Login to your Agora Voting</tspan><tspan
         id="tspan5990"
         sodipodi:role="line"
         x="330.05591"
         y="690.33655"
         style="font-size:16px;fill:#2c3e50">account</tspan></text>
    <rect
       style="fill:none;stroke:#cc2929;stroke-width:1.10000002;stroke-miterlimit:4;stroke-opacity:0.65217393;stroke-dasharray:none"
       id="rect5992"
       width="204.05081"
       height="22.223356"
       x="333.38226"
       y="734.28369"
       ry="3.5714285" />
    <text
       xml:space="preserve"
       style="font-size:13px;font-style:normal;font-weight:normal;line-height:125%;letter-spacing:0px;word-spacing:0px;fill:#000000;fill-opacity:1;stroke:none;font-family:Sans"
       x="333.9252"
       y="723.07831"
       id="text5994"
       sodipodi:linespacing="125%"><tspan
         sodipodi:role="line"
         id="tspan5996"
         x="333.9252"
         y="723.07831"
         style="font-size:16px;fill:#000000">Email</tspan></text>
    <text
       xml:space="preserve"
       style="font-size:13px;font-style:normal;font-weight:normal;line-height:125%;letter-spacing:0px;word-spacing:0px;fill:#000000;fill-opacity:1;stroke:none;font-family:Sans"
       x="330.38425"
       y="790.37415"
       id="text5998"
       sodipodi:linespacing="125%"><tspan
         sodipodi:role="line"
         id="tspan6000"
         x="330.38425"
         y="790.37415"
         style="font-size:16px;fill:#000000">Password</tspan></text>
    <text
       xml:space="preserve"
       style="font-size:13px;font-style:normal;font-weight:normal;line-height:125%;letter-spacing:0px;word-spacing:0px;fill:#2c3e50;fill-opacity:1;stroke:none;font-family:Sans"
       x="331.60577"
       y="804.00134"
       id="text6002"
       sodipodi:linespacing="125%"><tspan
         sodipodi:role="line"
         id="tspan6004"
         x="331.60577"
         y="804.00134"
         style="font-size:10px;fill:#003380;fill-opacity:1">Forgot your password?</tspan></text>
    <rect
       ry="3.5714285"
       y="818.28369"
       x="333.38226"
       height="22.223356"
       width="204.05081"
       id="rect6032"
       style="fill:none;stroke:#bbbbbb;stroke-width:1.10000002;stroke-miterlimit:4;stroke-opacity:0.41062802;stroke-dasharray:none" />
    <text
       sodipodi:linespacing="125%"
       id="text6034"
       y="767.12097"
       x="332.32593"
       style="font-size:13px;font-style:normal;font-weight:normal;line-height:125%;letter-spacing:0px;word-spacing:0px;fill:#cc2929;fill-opacity:1;stroke:none;font-family:Sans"
       xml:space="preserve"><tspan
         style="font-size:10px;fill:#cc2929;fill-opacity:1"
         y="767.12097"
         x="332.32593"
         id="tspan6036"
         sodipodi:role="line">Please enter a valid email address</tspan></text>
    <flowRoot
       transform="translate(-160,780)"
       xml:space="preserve"
       id="flowRoot6038"
       style="font-size:13px;font-style:normal;font-weight:normal;line-height:125%;letter-spacing:0px;word-spacing:0px;fill:#000000;fill-opacity:1;stroke:none;font-family:Sans"><flowRegion
         id="flowRegion6040"><rect
           id="rect6042"
           width="219.28572"
           height="133.57143"
           x="494.28571"
           y="131.64789" /></flowRegion><flowPara
         id="flowPara6044"
         style="font-size:11px;font-weight:bold">Dont have an account?</flowPara><flowPara
         style="font-size:11px;font-weight:normal;fill:#0066ff"
         id="flowPara6046" /><flowPara
         style="font-size:11px;font-weight:normal;fill:#0066ff"
         id="flowPara6048"><flowSpan
           style="fill:#003380"
           id="flowSpan6050">Sign up for free </flowSpan></flowPara><flowPara
         style="font-size:11px;font-weight:normal"
         id="flowPara6052">It only takes 5 minutes</flowPara><flowPara
         style="font-size:11px;font-weight:normal"
         id="flowPara6054" /><flowPara
         style="font-size:11px;font-weight:normal"
         id="flowPara6056">Take a look at the <flowSpan
   style="fill:#003380"
   id="flowSpan6058">step by step guide</flowSpan></flowPara></flowRoot>    <rect
       ry="4.737874"
       y="862.49487"
       x="333.77045"
       height="31.096811"
       width="203.03047"
       id="rect6060"
       style="fill:#00a489;fill-opacity:1;stroke-width:0;stroke-miterlimit:4;stroke-dasharray:none" />
    <text
       xml:space="preserve"
       style="font-size:13px;font-style:normal;font-weight:normal;line-height:125%;letter-spacing:0px;word-spacing:0px;fill:#ffffff;fill-opacity:1;stroke:none;font-family:Sans"
       x="388.14319"
       y="882.47632"
       id="text6062"
       sodipodi:linespacing="125%"><tspan
         sodipodi:role="line"
         id="tspan6064"
         x="388.14319"
         y="882.47632"
         style="font-size:18px;fill:#ffffff">Enter</tspan></text>
    <rect
       style="fill:#2c3e50;fill-opacity:1;stroke-width:0;stroke-miterlimit:4;stroke-dasharray:none"
       id="rect5984"
       width="237.63544"
       height="39.058014"
       x="320"
       y="599.7832" />
    <g
       transform="matrix(0.35351007,0,0,0.35351007,292.85878,401.0131)"
       style="font-size:13px;font-style:normal;font-weight:normal;line-height:125%;letter-spacing:0px;word-spacing:0px;fill:#ffffff;fill-opacity:1;stroke:none;font-family:Sans"
       id="g6006"
       inkscape:export-filename="/home/edulix/Downloads/logo/propuestas.png"
       inkscape:export-xdpi="214.28596"
       inkscape:export-ydpi="214.28596">
      <g
         id="g6008"
         transform="matrix(1.0322758,0,0,1.0322758,21.028212,-21.000808)"
         style="fill:#ffffff">
        <path
           id="path6010"
           style="font-size:64px;fill:#ffffff"
           d="m 166.3125,596.91695 -8.5625,23.21875 17.15625,0 -8.59375,-23.21875 m -3.5625,-6.21875 7.15625,0 17.78125,46.65625 -6.5625,0 -4.25,-11.96875 -21.03125,0 -4.25,11.96875 -6.65625,0 17.8125,-46.65625"
           inkscape:connector-curvature="0" />
        <path
           inkscape:connector-curvature="0"
           id="path6012"
           style="font-size:64px;fill:#ffffff"
           d="m 212.10875,619.4482 c -3e-5,-4.16665 -0.86461,-7.39581 -2.59375,-9.6875 -1.70836,-2.29164 -4.11461,-3.43747 -7.21875,-3.4375 -3.08335,3e-5 -5.4896,1.14586 -7.21875,3.4375 -1.70834,2.29169 -2.56251,5.52085 -2.5625,9.6875 -10e-6,4.14584 0.85416,7.36459 2.5625,9.65625 1.72915,2.29167 4.1354,3.4375 7.21875,3.4375 3.10414,0 5.51039,-1.14583 7.21875,-3.4375 1.72914,-2.29166 2.59372,-5.51041 2.59375,-9.65625 m 5.75,13.5625 c -3e-5,5.95833 -1.32295,10.38541 -3.96875,13.28125 -2.64586,2.91665 -6.69794,4.37498 -12.15625,4.375 -2.02085,-2e-5 -3.9271,-0.15627 -5.71875,-0.46875 -1.79168,-0.29168 -3.53126,-0.75002 -5.21875,-1.375 l 0,-5.59375 c 1.68749,0.91666 3.35416,1.59374 5,2.03125 1.64582,0.43749 3.3229,0.65624 5.03125,0.65625 3.77081,-1e-5 6.59373,-0.98959 8.46875,-2.96875 1.87497,-1.95834 2.81247,-4.92709 2.8125,-8.90625 l 0,-2.84375 c -1.18753,2.0625 -2.70836,3.60417 -4.5625,4.625 -1.85419,1.02083 -4.07294,1.53125 -6.65625,1.53125 -4.29168,0 -7.75001,-1.63542 -10.375,-4.90625 -2.625,-3.27083 -3.9375,-7.60416 -3.9375,-13 0,-5.41665 1.3125,-9.76039 3.9375,-13.03125 2.62499,-3.2708 6.08332,-4.90622 10.375,-4.90625 2.58331,3e-5 4.80206,0.51045 6.65625,1.53125 1.85414,1.02086 3.37497,2.56253 4.5625,4.625 l 0,-5.3125 5.75,0 0,30.65625" />
        <path
           inkscape:connector-curvature="0"
           id="path6014"
           style="font-size:64px;fill:#ffffff"
           d="m 238.12375,606.3857 c -3.08335,3e-5 -5.52085,1.20836 -7.3125,3.625 -1.79168,2.39585 -2.68751,5.68752 -2.6875,9.875 -1e-5,4.18751 0.88541,7.48959 2.65625,9.90625 1.79165,2.39583 4.23957,3.59375 7.34375,3.59375 3.06248,0 5.48956,-1.20833 7.28125,-3.625 1.79164,-2.41666 2.68747,-5.70832 2.6875,-9.875 -3e-5,-4.14582 -0.89586,-7.42706 -2.6875,-9.84375 -1.79169,-2.43747 -4.21877,-3.65622 -7.28125,-3.65625 m 0,-4.875 c 4.99998,3e-5 8.92705,1.62503 11.78125,4.875 2.85413,3.25002 4.28121,7.75002 4.28125,13.5 -4e-5,5.72917 -1.42712,10.22917 -4.28125,13.5 -2.8542,3.25 -6.78127,4.875 -11.78125,4.875 -5.02085,0 -8.95834,-1.625 -11.8125,-4.875 -2.83334,-3.27083 -4.25,-7.77083 -4.25,-13.5 0,-5.74998 1.41666,-10.24998 4.25,-13.5 2.85416,-3.24997 6.79165,-4.87497 11.8125,-4.875" />
        <path
           inkscape:connector-curvature="0"
           id="path6016"
           style="font-size:64px;fill:#ffffff"
           d="m 278.82625,607.72945 c -0.64586,-0.37497 -1.35419,-0.64581 -2.125,-0.8125 -0.75002,-0.18747 -1.58336,-0.28122 -2.5,-0.28125 -3.25002,3e-5 -5.75002,1.06253 -7.5,3.1875 -1.72918,2.10419 -2.59376,5.13544 -2.59375,9.09375 l 0,18.4375 -5.78125,0 0,-35 5.78125,0 0,5.4375 c 1.20832,-2.12497 2.78124,-3.69789 4.71875,-4.71875 1.93748,-1.04164 4.29165,-1.56247 7.0625,-1.5625 0.39581,3e-5 0.83331,0.0313 1.3125,0.0937 0.47914,0.0417 1.01039,0.11462 1.59375,0.21875 l 0.0312,5.90625" />
        <path
           inkscape:connector-curvature="0"
           id="path6018"
           style="font-size:64px;fill:#ffffff"
           d="m 297.39875,619.7607 c -4.64585,10e-6 -7.8646,0.53126 -9.65625,1.59375 -1.79168,1.06251 -2.68751,2.87501 -2.6875,5.4375 -1e-5,2.04167 0.66666,3.66667 2,4.875 1.35415,1.1875 3.18749,1.78125 5.5,1.78125 3.18748,0 5.73956,-1.125 7.65625,-3.375 1.93747,-2.27083 2.90622,-5.28124 2.90625,-9.03125 l 0,-1.28125 -5.71875,0 m 11.46875,-2.375 0,19.96875 -5.75,0 0,-5.3125 c -1.31253,2.125 -2.94794,3.69791 -4.90625,4.71875 -1.95835,1 -4.35419,1.5 -7.1875,1.5 -3.58335,0 -6.43751,-1 -8.5625,-3 -2.10417,-2.02083 -3.15625,-4.71875 -3.15625,-8.09375 0,-3.93749 1.31249,-6.90624 3.9375,-8.90625 2.64582,-1.99998 6.58332,-2.99998 11.8125,-3 l 8.0625,0 0,-0.5625 c -3e-5,-2.64581 -0.87503,-4.68748 -2.625,-6.125 -1.72919,-1.45831 -4.16669,-2.18747 -7.3125,-2.1875 -2.00002,3e-5 -3.94793,0.23961 -5.84375,0.71875 -1.89584,0.47919 -3.71876,1.19794 -5.46875,2.15625 l 0,-5.3125 c 2.10416,-0.81247 4.14582,-1.41664 6.125,-1.8125 1.97915,-0.41663 3.90623,-0.62497 5.78125,-0.625 5.06248,3e-5 8.84372,1.31253 11.34375,3.9375 2.49997,2.62503 3.74997,6.60419 3.75,11.9375" />
        <path
           inkscape:connector-curvature="0"
           id="path6020"
           style="font-size:64px;fill:#ffffff"
           d="M 341.4025,637.35445 323.59,590.6982 l 6.59375,0 14.78125,39.28125 14.8125,-39.28125 6.5625,0 -17.78125,46.65625 -7.15625,0" />
        <path
           inkscape:connector-curvature="0"
           id="path6022"
           style="font-size:64px;fill:#ffffff"
           d="m 376.2925,606.3857 c -3.08335,3e-5 -5.52085,1.20836 -7.3125,3.625 -1.79168,2.39585 -2.68751,5.68752 -2.6875,9.875 -1e-5,4.18751 0.88541,7.48959 2.65625,9.90625 1.79165,2.39583 4.23957,3.59375 7.34375,3.59375 3.06248,0 5.48956,-1.20833 7.28125,-3.625 1.79164,-2.41666 2.68747,-5.70832 2.6875,-9.875 -3e-5,-4.14582 -0.89586,-7.42706 -2.6875,-9.84375 -1.79169,-2.43747 -4.21877,-3.65622 -7.28125,-3.65625 m 0,-4.875 c 4.99998,3e-5 8.92705,1.62503 11.78125,4.875 2.85413,3.25002 4.28121,7.75002 4.28125,13.5 -4e-5,5.72917 -1.42712,10.22917 -4.28125,13.5 -2.8542,3.25 -6.78127,4.875 -11.78125,4.875 -5.02085,0 -8.95834,-1.625 -11.8125,-4.875 -2.83334,-3.27083 -4.25,-7.77083 -4.25,-13.5 0,-5.74998 1.41666,-10.24998 4.25,-13.5 2.85416,-3.24997 6.79165,-4.87497 11.8125,-4.875" />
        <path
           inkscape:connector-curvature="0"
           id="path6024"
           style="font-size:64px;fill:#ffffff"
           d="m 402.40125,592.41695 0,9.9375 11.84375,0 0,4.46875 -11.84375,0 0,19 c -1e-5,2.85417 0.3854,4.6875 1.15625,5.5 0.79165,0.8125 2.3854,1.21875 4.78125,1.21875 l 5.90625,0 0,4.8125 -5.90625,0 c -4.43751,0 -7.50001,-0.82292 -9.1875,-2.46875 -1.68751,-1.66667 -2.53126,-4.6875 -2.53125,-9.0625 l 0,-19 -4.21875,0 0,-4.46875 4.21875,0 0,-9.9375 5.78125,0" />
        <path
           inkscape:connector-curvature="0"
           id="path6026"
           style="font-size:64px;fill:#ffffff"
           d="m 418.41125,602.35445 5.75,0 0,35 -5.75,0 0,-35 m 0,-13.625 5.75,0 0,7.28125 -5.75,0 0,-7.28125" />
        <path
           inkscape:connector-curvature="0"
           id="path6028"
           style="font-size:64px;fill:#ffffff"
           d="m 458.4,616.22945 0,21.125 -5.75,0 0,-20.9375 c -3e-5,-3.31248 -0.64586,-5.79164 -1.9375,-7.4375 -1.29169,-1.64581 -3.22919,-2.46872 -5.8125,-2.46875 -3.10419,3e-5 -5.5521,0.98961 -7.34375,2.96875 -1.79168,1.97919 -2.68751,4.6771 -2.6875,8.09375 l 0,19.78125 -5.78125,0 0,-35 5.78125,0 0,5.4375 c 1.37499,-2.10414 2.98957,-3.67705 4.84375,-4.71875 1.87498,-1.04164 4.03123,-1.56247 6.46875,-1.5625 4.02081,3e-5 7.06247,1.25003 9.125,3.75 2.06247,2.47919 3.09371,6.13544 3.09375,10.96875" />
        <path
           inkscape:connector-curvature="0"
           id="path6030"
           style="font-size:64px;fill:#ffffff"
           d="m 487.82125,619.4482 c -3e-5,-4.16665 -0.86461,-7.39581 -2.59375,-9.6875 -1.70836,-2.29164 -4.11461,-3.43747 -7.21875,-3.4375 -3.08335,3e-5 -5.4896,1.14586 -7.21875,3.4375 -1.70834,2.29169 -2.56251,5.52085 -2.5625,9.6875 -1e-5,4.14584 0.85416,7.36459 2.5625,9.65625 1.72915,2.29167 4.1354,3.4375 7.21875,3.4375 3.10414,0 5.51039,-1.14583 7.21875,-3.4375 1.72914,-2.29166 2.59372,-5.51041 2.59375,-9.65625 m 5.75,13.5625 c -3e-5,5.95833 -1.32295,10.38541 -3.96875,13.28125 -2.64586,2.91665 -6.69794,4.37498 -12.15625,4.375 -2.02085,-2e-5 -3.9271,-0.15627 -5.71875,-0.46875 -1.79168,-0.29168 -3.53126,-0.75002 -5.21875,-1.375 l 0,-5.59375 c 1.68749,0.91666 3.35416,1.59374 5,2.03125 1.64582,0.43749 3.3229,0.65624 5.03125,0.65625 3.77081,-1e-5 6.59373,-0.98959 8.46875,-2.96875 1.87497,-1.95834 2.81247,-4.92709 2.8125,-8.90625 l 0,-2.84375 c -1.18753,2.0625 -2.70836,3.60417 -4.5625,4.625 -1.85419,1.02083 -4.07294,1.53125 -6.65625,1.53125 -4.29168,0 -7.75001,-1.63542 -10.375,-4.90625 -2.625,-3.27083 -3.9375,-7.60416 -3.9375,-13 0,-5.41665 1.3125,-9.76039 3.9375,-13.03125 2.62499,-3.2708 6.08332,-4.90622 10.375,-4.90625 2.58331,3e-5 4.80206,0.51045 6.65625,1.53125 1.85414,1.02086 3.37497,2.56253 4.5625,4.625 l 0,-5.3125 5.75,0 0,30.65625" />
      </g>
    </g>
    <text
       xml:space="preserve"
       style="font-size:13px;font-style:normal;font-weight:normal;line-height:125%;letter-spacing:0px;word-spacing:0px;fill:#000000;fill-opacity:1;stroke:none;font-family:Sans"
       x="527.28571"
       y="628.07648"
       id="text6074"
       sodipodi:linespacing="125%"><tspan
         sodipodi:role="line"
         id="tspan6076"
         x="527.28571"
         y="628.07648"
         style="font-size:25px;font-weight:bold;fill:#ffffff">X</tspan></text>
    <rect
       y="751.78333"
       x="320"
       height="808.578"
       width="177.63544"
       id="rect5768"
       style="fill:#f2f2f2;fill-opacity:1;stroke-width:0;stroke-miterlimit:4;stroke-dasharray:none" />
    <text
       sodipodi:linespacing="125%"
       id="text5858"
       y="785.75781"
       x="341.33502"
       style="font-size:13px;font-style:normal;font-weight:normal;line-height:125%;letter-spacing:0px;word-spacing:0px;fill:#4d4d4d;fill-opacity:1;stroke:none;font-family:Sans"
       xml:space="preserve"><tspan
         style="font-size:12px;font-weight:bold;fill:#4d4d4d"
         id="tspan5860"
         y="785.75781"
         x="341.33502"
         sodipodi:role="line">Contact</tspan></text>
    <text
       xml:space="preserve"
       style="font-size:13px;font-style:normal;font-weight:normal;line-height:125%;letter-spacing:0px;word-spacing:0px;fill:#003380;fill-opacity:1;stroke:none;font-family:Sans"
       x="341.33502"
       y="815.75781"
       id="text5862"
       sodipodi:linespacing="125%"><tspan
         id="tspan5864"
         sodipodi:role="line"
         x="341.33502"
         y="815.75781"
         style="font-size:12px;fill:#003380;fill-opacity:1">Contact support</tspan><tspan
         id="tspan5866"
         sodipodi:role="line"
         x="341.33502"
         y="830.75781"
         style="font-size:12px;fill:#003380;fill-opacity:1">Contact sales</tspan><tspan
         id="tspan5868"
         sodipodi:role="line"
         x="341.33502"
         y="845.75781"
         style="font-size:12px;fill:#003380;fill-opacity:1">Call sales </tspan><tspan
         id="tspan5870"
         sodipodi:role="line"
         x="341.33502"
         y="860.75781"
         style="font-size:12px;fill:#003380;fill-opacity:1">+34 634 571 634</tspan><tspan
         id="tspan5872"
         sodipodi:role="line"
         x="341.33502"
         y="875.75781"
         style="font-size:12px;fill:#003380;fill-opacity:1" /><tspan
         id="tspan5874"
         sodipodi:role="line"
         x="341.33502"
         y="890.75781"
         style="font-size:12px;fill:#003380;fill-opacity:1" /></text>
    <text
       xml:space="preserve"
       style="font-size:13px;font-style:normal;font-weight:normal;line-height:125%;letter-spacing:0px;word-spacing:0px;fill:#4d4d4d;fill-opacity:1;stroke:none;font-family:Sans"
       x="339.33502"
       y="911.75781"
       id="text5876"
       sodipodi:linespacing="125%"><tspan
         sodipodi:role="line"
         x="339.33502"
         y="911.75781"
         id="tspan5878"
         style="font-size:12px;font-weight:bold;fill:#4d4d4d">What we do</tspan></text>
    <text
       sodipodi:linespacing="125%"
       id="text5880"
       y="941.75781"
       x="339.33502"
       style="font-size:13px;font-style:normal;font-weight:normal;line-height:125%;letter-spacing:0px;word-spacing:0px;fill:#003380;fill-opacity:1;stroke:none;font-family:Sans"
       xml:space="preserve"><tspan
         style="font-size:12px;fill:#003380;fill-opacity:1"
         y="941.75781"
         x="339.33502"
         sodipodi:role="line"
         id="tspan5882">Plans</tspan><tspan
         id="tspan5884"
         style="font-size:12px;fill:#003380;fill-opacity:1"
         y="956.75781"
         x="339.33502"
         sodipodi:role="line">Overview</tspan><tspan
         id="tspan5886"
         style="font-size:12px;fill:#003380;fill-opacity:1"
         y="971.75781"
         x="339.33502"
         sodipodi:role="line">Features tour</tspan><tspan
         id="tspan5888"
         style="font-size:12px;fill:#003380;fill-opacity:1"
         y="986.75781"
         x="339.33502"
         sodipodi:role="line">Case studies</tspan><tspan
         id="tspan5890"
         style="font-size:12px;fill:#003380;fill-opacity:1"
         y="1001.7578"
         x="339.33502"
         sodipodi:role="line" /></text>
    <text
       sodipodi:linespacing="125%"
       id="text5892"
       y="1007.7578"
       x="337.33502"
       style="font-size:13px;font-style:normal;font-weight:normal;line-height:125%;letter-spacing:0px;word-spacing:0px;fill:#4d4d4d;fill-opacity:1;stroke:none;font-family:Sans"
       xml:space="preserve"><tspan
         style="font-size:12px;font-weight:bold;fill:#4d4d4d"
         id="tspan5894"
         y="1007.7578"
         x="337.33502"
         sodipodi:role="line">Community</tspan></text>
    <text
       xml:space="preserve"
       style="font-size:13px;font-style:normal;font-weight:normal;line-height:125%;letter-spacing:0px;word-spacing:0px;fill:#003380;fill-opacity:1;stroke:none;font-family:Sans"
       x="337.33502"
       y="1037.7578"
       id="text5896"
       sodipodi:linespacing="125%"><tspan
         id="tspan5898"
         sodipodi:role="line"
         x="337.33502"
         y="1037.7578"
         style="font-size:12px;fill:#003380;fill-opacity:1">Blog</tspan><tspan
         id="tspan5900"
         sodipodi:role="line"
         x="337.33502"
         y="1052.7578"
         style="font-size:12px;fill:#003380;fill-opacity:1">Mailing list</tspan><tspan
         id="tspan5902"
         sodipodi:role="line"
         x="337.33502"
         y="1067.7578"
         style="font-size:12px;fill:#003380;fill-opacity:1">Source code</tspan><tspan
         id="tspan5904"
         sodipodi:role="line"
         x="337.33502"
         y="1082.7578"
         style="font-size:12px;fill:#003380;fill-opacity:1">Events</tspan><tspan
         id="tspan5906"
         sodipodi:role="line"
         x="337.33502"
         y="1097.7578"
         style="font-size:12px;fill:#003380;fill-opacity:1">Community website</tspan></text>
    <text
       xml:space="preserve"
       style="font-size:13px;font-style:normal;font-weight:normal;line-height:125%;letter-spacing:0px;word-spacing:0px;fill:#4d4d4d;fill-opacity:1;stroke:none;font-family:Sans"
       x="339.33502"
       y="1125.7578"
       id="text5908"
       sodipodi:linespacing="125%"><tspan
         sodipodi:role="line"
         x="339.33502"
         y="1125.7578"
         id="tspan5910"
         style="font-size:12px;font-weight:bold;fill:#4d4d4d">Support</tspan></text>
    <text
       sodipodi:linespacing="125%"
       id="text5912"
       y="1155.7578"
       x="339.33502"
       style="font-size:13px;font-style:normal;font-weight:normal;line-height:125%;letter-spacing:0px;word-spacing:0px;fill:#003380;fill-opacity:1;stroke:none;font-family:Sans"
       xml:space="preserve"><tspan
         style="font-size:12px;fill:#003380;fill-opacity:1"
         y="1155.7578"
         x="339.33502"
         sodipodi:role="line"
         id="tspan5914">Help center</tspan><tspan
         id="tspan5916"
         style="font-size:12px;fill:#003380;fill-opacity:1"
         y="1170.7578"
         x="339.33502"
         sodipodi:role="line">System status</tspan><tspan
         id="tspan5918"
         style="font-size:12px;fill:#003380;fill-opacity:1"
         y="1185.7578"
         x="339.33502"
         sodipodi:role="line">Videos</tspan><tspan
         id="tspan5920"
         style="font-size:12px;fill:#003380;fill-opacity:1"
         y="1200.7578"
         x="339.33502"
         sodipodi:role="line">Developers</tspan></text>
    <path
       transform="translate(308,500)"
       d="m 51.428571,381.64789 a 9.2857141,9.2857141 0 1 1 -18.571429,0 9.2857141,9.2857141 0 1 1 18.571429,0 z"
       sodipodi:ry="9.2857141"
       sodipodi:rx="9.2857141"
       sodipodi:cy="381.64789"
       sodipodi:cx="42.142857"
       id="path5922"
       style="fill:#2c3e50;fill-opacity:1;stroke:none"
       sodipodi:type="arc" />
    <path
       transform="translate(332,500)"
       sodipodi:type="arc"
       style="fill:#3771c8;fill-opacity:1;stroke:none"
       id="path5924"
       sodipodi:cx="42.142857"
       sodipodi:cy="381.64789"
       sodipodi:rx="9.2857141"
       sodipodi:ry="9.2857141"
       d="m 51.428571,381.64789 a 9.2857141,9.2857141 0 1 1 -18.571429,0 9.2857141,9.2857141 0 1 1 18.571429,0 z" />
    <path
       d="m 51.428571,381.64789 a 9.2857141,9.2857141 0 1 1 -18.571429,0 9.2857141,9.2857141 0 1 1 18.571429,0 z"
       sodipodi:ry="9.2857141"
       sodipodi:rx="9.2857141"
       sodipodi:cy="381.64789"
       sodipodi:cx="42.142857"
       id="path5926"
       style="fill:#c83737;fill-opacity:1;stroke:none"
       sodipodi:type="arc"
       transform="translate(356,500)" />
    <path
       transform="translate(380,500)"
       sodipodi:type="arc"
       style="fill:#8080ff;fill-opacity:1;stroke:none"
       id="path5928"
       sodipodi:cx="42.142857"
       sodipodi:cy="381.64789"
       sodipodi:rx="9.2857141"
       sodipodi:ry="9.2857141"
       d="m 51.428571,381.64789 a 9.2857141,9.2857141 0 1 1 -18.571429,0 9.2857141,9.2857141 0 1 1 18.571429,0 z" />
    <text
       sodipodi:linespacing="125%"
       id="text5930"
       y="1221.7578"
       x="339.33502"
       style="font-size:13px;font-style:normal;font-weight:normal;line-height:125%;letter-spacing:0px;word-spacing:0px;fill:#4d4d4d;fill-opacity:1;stroke:none;font-family:Sans"
       xml:space="preserve"><tspan
         style="font-size:12px;font-weight:bold;fill:#4d4d4d"
         id="tspan5932"
         y="1221.7578"
         x="339.33502"
         sodipodi:role="line">About us</tspan></text>
    <text
       xml:space="preserve"
       style="font-size:13px;font-style:normal;font-weight:normal;line-height:125%;letter-spacing:0px;word-spacing:0px;fill:#003380;fill-opacity:1;stroke:none;font-family:Sans"
       x="339.33502"
       y="1251.7578"
       id="text5934"
       sodipodi:linespacing="125%"><tspan
         id="tspan5936"
         sodipodi:role="line"
         x="339.33502"
         y="1251.7578"
         style="font-size:12px;fill:#003380;fill-opacity:1">Our team</tspan><tspan
         id="tspan5938"
         sodipodi:role="line"
         x="339.33502"
         y="1266.7578"
         style="font-size:12px;fill:#003380;fill-opacity:1">Terms of service</tspan><tspan
         id="tspan5940"
         sodipodi:role="line"
         x="339.33502"
         y="1281.7578"
         style="font-size:12px;fill:#003380;fill-opacity:1">Press center</tspan><tspan
         id="tspan5942"
         sodipodi:role="line"
         x="339.33502"
         y="1296.7578"
         style="font-size:12px;fill:#003380;fill-opacity:1">Privacy &amp; security</tspan></text>
    <rect
       y="634.06891"
       x="320"
       height="129.058"
       width="177.63544"
       id="rect6092"
       style="fill:#2c3e50;fill-opacity:1;stroke-width:0;stroke-miterlimit:4;stroke-dasharray:none" />
    <text
       xml:space="preserve"
       style="font-size:13px;font-style:normal;font-weight:normal;line-height:125%;letter-spacing:0px;word-spacing:0px;fill:#000000;fill-opacity:1;stroke:none;font-family:Sans"
       x="340"
       y="650.93359"
       id="text6078"
       sodipodi:linespacing="125%"><tspan
         sodipodi:role="line"
         id="tspan6080"
         x="340"
         y="650.93359"
         style="font-size:15px;fill:#ffffff">Home</tspan><tspan
         sodipodi:role="line"
         x="340"
         y="669.68359"
         id="tspan6082"
         style="font-size:15px;fill:#ffffff">Features</tspan><tspan
         sodipodi:role="line"
         x="340"
         y="688.43359"
         id="tspan6084"
         style="font-size:15px;fill:#ffffff">Help</tspan><tspan
         sodipodi:role="line"
         x="340"
         y="707.18359"
         id="tspan6086"
         style="font-size:15px;fill:#ffffff" /><tspan
         sodipodi:role="line"
         x="340"
         y="725.93359"
         id="tspan6090"
         style="font-size:15px;fill:#ffffff">Sign up</tspan><tspan
         sodipodi:role="line"
         x="340"
         y="744.68359"
         id="tspan6088"
         style="font-size:15px;fill:#ffffff">Login</tspan></text>
    <text
       sodipodi:linespacing="125%"
       id="text6384"
       y="150.15826"
       x="176.74275"
       style="font-size:13px;font-style:normal;font-weight:normal;line-height:125%;letter-spacing:0px;word-spacing:0px;fill:#b3b3b3;fill-opacity:1;stroke:none;font-family:Sans"
       xml:space="preserve"><tspan
         style="font-size:14px;fill:#b3b3b3"
         y="150.15826"
         x="176.74275"
         id="tspan6386"
         sodipodi:role="line">eg. john@example.com</tspan></text>
    <path
       style="fill:none;stroke:#000000;stroke-width:0.94144017px;stroke-linecap:butt;stroke-linejoin:miter;stroke-opacity:1"
       d="m 139.40268,437.17928 c 0.25602,4.76191 -3.4214,-1.19048 -4.47653,0 -0.21103,0.2381 0.21102,0.77206 0,1.01015 -0.21103,0.2381 -0.68429,-0.23809 -0.89531,0 -0.21103,0.2381 0.13346,0.70899 0,1.01016 -0.18875,0.42591 -0.59688,0.67343 -0.89531,1.01015 -0.29843,0.33672 -0.51781,0.79719 -0.89531,1.01015 -0.26693,0.15059 -0.68428,-0.23809 -0.89531,0 -0.59709,0.67369 0.59709,1.34662 0,2.02031 -0.21103,0.23809 -0.68428,-0.2381 -0.8953,0 -0.21103,0.23809 0.21102,0.77205 0,1.01015 -0.21103,0.23809 -0.68429,-0.2381 -0.89532,0 -1.85242,2.09004 2.83075,-0.0817 -0.8953,2.0203 -0.26693,0.15059 -0.68429,-0.23809 -0.89531,0 -0.21103,0.2381 0.21102,0.77206 0,1.01016 -0.21103,0.23809 -0.59687,0 -0.8953,0 -0.62273,0 -4.15277,-0.18266 -4.47655,0 -0.37749,0.21296 -0.49491,0.85956 -0.8953,1.01015 -0.48132,0.18102 -2.82322,0 -3.58124,0 -2.38748,0 -4.77497,0 -7.16246,0 -0.77586,0 -3.0626,-0.19505 -3.58123,0 -0.63308,0.23809 -1.15754,0.77206 -1.79062,1.01015 -0.56624,0.21296 -1.19374,0 -1.79061,0 -1.49218,0 -2.98436,0 -4.476542,0 -0.596872,0 -1.224374,-0.21296 -1.790616,0 -0.633078,0.2381 -1.157537,0.77206 -1.790616,1.01015 -0.561943,0.21135 -2.860477,0 -3.581231,0 -2.387489,0 -4.774976,0 -7.162464,0 -6.864028,0 -13.728055,0 -20.592082,0 -1.790616,0 -3.581232,0 -5.371848,0 -0.298436,0 -0.684282,0.2381 -0.895308,0 -0.211026,-0.23809 0.211026,-0.77205 0,-1.01015 -0.211026,-0.23809 -0.628378,0.15059 -0.895308,0 -0.75499,-0.42592 -1.035625,-1.59439 -1.790616,-2.0203 -0.266929,-0.15059 -0.684281,0.23809 -0.895307,0 -0.211027,-0.2381 0.211026,-0.77206 0,-1.01016 -0.211027,-0.23809 -0.62838,0.15059 -0.895309,0 -0.377495,-0.21296 -0.517813,-0.79719 -0.895308,-1.01015 -0.266929,-0.15058 -0.628378,0.15059 -0.895307,0 -0.377496,-0.21296 -0.517813,-0.79719 -0.895309,-1.01015 -0.266929,-0.15059 -0.684281,0.23809 -0.895307,0 -0.211026,-0.2381 0.211026,-0.77206 0,-1.01015 -0.211026,-0.2381 -0.684282,0.23809 -0.895308,0 -0.211026,-0.2381 0.211026,-0.77206 0,-1.01016 -0.211026,-0.23809 -0.628379,0.15059 -0.895308,0 -0.377495,-0.21296 -0.517813,-0.79719 -0.895308,-1.01015 -0.266929,-0.15058 -0.684282,0.2381 -0.895308,0 -0.211026,-0.23809 0.133464,-0.70898 0,-1.01015 -1.863029,-4.20401 0.06181,1.07989 -1.790615,-1.01015 -0.211027,-0.2381 0.211025,-0.77206 0,-1.01016 -0.211027,-0.23809 -0.684283,0.2381 -0.895309,0 -0.211026,-0.23809 0.211026,-0.77205 0,-1.01015 -0.211026,-0.23809 -0.684281,0.2381 -0.895308,0 -0.211026,-0.23809 0.211027,-0.77206 0,-1.01015 -0.211026,-0.2381 -0.684282,0.23809 -0.895308,0 -0.211025,-0.2381 0.211026,-0.77206 0,-1.01015 -0.211025,-0.2381 -0.684281,-0.2381 -0.895308,0 -0.211026,0.23809 0,0.67343 0,1.01015 0,0.33672 -0.211026,0.77206 0,1.01015 0.211027,0.2381 0.684283,-0.23809 0.895308,0 0.211026,0.2381 -0.211025,0.77206 0,1.01015 0.211026,0.2381 0.596872,0 0.895308,0 0,0.33672 -0.211026,0.77206 0,1.01016 0.211027,0.23809 0.684282,-0.2381 0.895308,0 0.211026,0.23809 -0.211026,0.77205 0,1.01015 0.211026,0.23809 0.684282,-0.2381 0.895309,0 0.211025,0.23809 -0.211027,0.77206 0,1.01015 0.211025,0.2381 0.628378,-0.15058 0.895307,0 0.377495,0.21296 0.596872,0.67344 0.895308,1.01015 0.298436,0.33672 0.70656,0.58424 0.895308,1.01016 0.133465,0.30117 -0.211026,0.77205 0,1.01015 0.211026,0.23809 0.684281,-0.2381 0.895308,0 0.211026,0.23809 -0.211027,0.77206 0,1.01015 0.447654,0.50508 2.23827,-0.50508 2.685923,0 0.211027,0.2381 -0.211026,0.77206 0,1.01015 0.422053,0.47619 1.368564,-0.47619 1.790616,0 0.211027,0.2381 -0.211026,0.77206 0,1.01016 0.211027,0.23809 0.895308,-0.33672 0.895308,0 0,0.33671 -0.596872,0 -0.895308,0 -0.298435,0 -0.596872,0 -0.895307,0 -1.193744,0 -2.387488,0 -3.581232,0 -6.267156,0 -12.534311,0 -18.801467,0 -7.460899,0 -14.921799,0 -22.3826976,0 -2.3874885,0 -4.7749762,0 -7.16246395,0 -0.59687192,0 -1.19374385,0 -1.79061575,0 -0.2984355,0 -0.6283785,0.15058 -0.8953084,0 -0.3774943,-0.21296 -0.5178122,-0.7972 -0.8953074,-1.01016 -0.5338589,-0.30117 -1.2567578,0.30117 -1.7906158,0 -0.3774952,-0.21296 -0.5178131,-0.79719 -0.8953083,-1.01015 -0.266929,-0.15058 -0.6283785,0.15059 -0.8953075,0 -0.3774952,-0.21296 -0.5178131,-0.79719 -0.8953083,-1.01015 -0.266929,-0.15059 -0.6842815,0.23809 -0.8953074,0 -0.2110268,-0.2381 0.2110259,-0.77206 0,-1.01015 -0.5597746,-0.63158 -1.2308426,0.63157 -1.7906156,0 -0.211027,-0.2381 0.211026,-0.77206 0,-1.01016 -0.422053,-0.47619 -1.256758,0.30117 -1.790617,0 -0.377494,-0.21296 -0.517812,-0.79719 -0.895307,-1.01015 -0.266929,-0.15058 -0.628379,0.15059 -0.895309,0 -0.377494,-0.21296 -0.517812,-0.79719 -0.895307,-1.01015 -0.266929,-0.15059 -0.628379,0.15058 -0.895308,0 -2.212668,-1.24825 0.309041,-1.01015 -1.790616,-1.01015"
       id="path6409"
       inkscape:connector-curvature="0" />
    <text
       xml:space="preserve"
       style="font-size:13px;font-style:normal;font-weight:normal;line-height:125%;letter-spacing:0px;word-spacing:0px;fill:#000000;fill-opacity:1;stroke:none;font-family:Sans"
       x="-30.025414"
       y="418.95593"
       id="text6411"
       sodipodi:linespacing="125%"><tspan
         sodipodi:role="line"
         x="-30.025414"
         y="418.95593"
         id="tspan6415"
         style="font-size:10px">social network</tspan><tspan
         sodipodi:role="line"
         x="-30.025414"
         y="431.45593"
         id="tspan8251"
         style="font-size:10px">links</tspan></text>
    <path
       style="fill:none;stroke:#000000;stroke-width:1px;stroke-linecap:butt;stroke-linejoin:miter;stroke-opacity:1"
       d="m 350.52293,143.22489 c 1.34687,-1.34687 2.49065,-2.93349 4.04061,-4.04061 0.86646,-0.6189 2.07808,-0.53396 3.03046,-1.01015 3.10073,-1.55037 6.11869,-3.26715 9.09138,-5.05077 0.40832,-0.24499 0.61393,-0.74601 1.01015,-1.01015 0.62647,-0.41765 1.41796,-0.5584 2.0203,-1.01015 2.10388,-1.57791 3.87275,-3.59199 6.06092,-5.05076 0.88596,-0.59065 2.04182,-0.6147 3.03046,-1.01016 0.69907,-0.27963 1.31532,-0.74578 2.0203,-1.01015 1.994,-0.74775 4.15615,-1.06792 6.06092,-2.0203 1.70367,-0.85184 2.40729,-3.06062 4.04061,-4.04061 0.91305,-0.54784 2.04182,-0.6147 3.03045,-1.01016 0.69908,-0.27963 1.32124,-0.73052 2.02031,-1.01015 1.97727,-0.79091 4.08364,-1.2294 6.06091,-2.0203 0.69908,-0.27963 1.28987,-0.82755 2.02031,-1.01016 0.65333,-0.16333 1.36698,0.16333 2.0203,0 0.73045,-0.18261 1.28987,-0.82754 2.02031,-1.01015 0.65333,-0.16333 1.38143,0.21296 2.0203,0 0.45176,-0.15058 0.58424,-0.79719 1.01016,-1.01015 0.30117,-0.15059 0.70898,0.15058 1.01015,0 0.42592,-0.21296 0.67343,-0.67344 1.01015,-1.01015 0.33672,-0.33672 0.58424,-0.7972 1.01015,-1.01016 0.30117,-0.15058 0.77206,0.2381 1.01016,0 0.23809,-0.23809 -0.2381,-0.77205 0,-1.01015 0.23809,-0.2381 0.77205,0.2381 1.01015,0 0.2381,-0.2381 -0.2381,-0.77206 0,-1.01015 0.2381,-0.2381 0.77206,0.23809 1.01015,0 0.2381,-0.2381 -0.23809,-0.77206 0,-1.01016 1.34687,-1.34687 1.01015,1.68359 1.01015,-1.01015"
       id="path6417"
       inkscape:connector-curvature="0" />
    <text
       xml:space="preserve"
       style="font-size:13px;font-style:normal;font-weight:normal;line-height:125%;letter-spacing:0px;word-spacing:0px;fill:#000000;fill-opacity:1;stroke:none;font-family:Sans"
       x="421.23361"
       y="101.80863"
       id="text6419"
       sodipodi:linespacing="125%"><tspan
         sodipodi:role="line"
         id="tspan6421"
         x="421.23361"
         y="101.80863">placeholder</tspan></text>
    <path
       style="fill:none;stroke:#000000;stroke-width:1px;stroke-linecap:butt;stroke-linejoin:miter;stroke-opacity:1"
       d="m 183.1828,204.84419 c -4.37733,0 -8.75466,0 -13.13199,0 -0.24498,0 -2.99797,-0.0325 -3.03045,0 -0.2381,0.2381 0,0.67344 0,1.01016 0,2.0203 0,4.04061 0,6.06091 0,0.47629 -0.0458,5.00498 0,5.05077 0.23809,0.23809 0.67343,0 1.01015,0 0.33672,0 0.67343,0 1.01015,0 0.97705,0 5.76132,-0.1498 6.06092,0 0.42592,0.21295 0.58423,0.79719 1.01015,1.01015 0.60141,0.3007 4.20028,-0.2835 5.05076,0 0.71429,0.23809 1.30602,0.77206 2.02031,1.01015 0.56992,0.18998 2.36668,0 3.03046,0"
       id="path6423"
       inkscape:connector-curvature="0" />
    <path
       style="fill:none;stroke:#000000;stroke-width:1px;stroke-linecap:butt;stroke-linejoin:miter;stroke-opacity:1"
       d="m 167.02036,212.92541 c -1.34687,0 -2.69374,0 -4.04061,0 -0.33672,0.33672 -0.5584,0.85957 -1.01016,1.01016 -0.93362,0.31121 -4.1085,-0.31409 -5.05076,0 -0.71428,0.23809 -1.30602,0.77205 -2.0203,1.01015 -0.63888,0.21296 -1.38143,-0.21296 -2.02031,0 -1.42857,0.47619 -2.61204,1.54411 -4.04061,2.02031 -0.31944,0.10647 -0.67343,0 -1.01015,0 -0.67344,0.33671 -1.30602,0.77205 -2.02031,1.01015 -0.63887,0.21296 -1.41796,-0.30117 -2.0203,0 -0.42592,0.21296 -0.58424,0.79719 -1.01015,1.01015 -0.30117,0.15058 -0.67344,0 -1.01016,0 -0.33671,0.33672 -0.58423,0.79719 -1.01015,1.01015 -0.60234,0.30117 -1.54411,-0.47619 -2.0203,0 -0.2381,0.2381 0,0.67344 0,1.01016"
       id="path6425"
       inkscape:connector-curvature="0" />
    <text
       xml:space="preserve"
       style="font-size:13px;font-style:normal;font-weight:normal;line-height:125%;letter-spacing:0px;word-spacing:0px;fill:#000000;fill-opacity:1;stroke:none;font-family:Sans"
       x="54.893425"
       y="238.17923"
       id="text6427"
       sodipodi:linespacing="125%"><tspan
         sodipodi:role="line"
         id="tspan6429"
         x="54.893425"
         y="238.17923">here enough</tspan><tspan
         sodipodi:role="line"
         x="54.893425"
         y="254.42923"
         id="tspan6431">spacing for</tspan><tspan
         sodipodi:role="line"
         x="54.893425"
         y="270.67923"
         id="tspan6433">errors</tspan></text>
    <path
       style="fill:none;stroke:#000000;stroke-width:1px;stroke-linecap:butt;stroke-linejoin:miter;stroke-opacity:1"
       d="m 605.08138,26.047194 c 0,3.591653 -0.42592,6.839895 2.0203,10.101525 1.86263,2.483506 5.26668,3.534776 7.07107,6.060915 9.2187,24.583209 -1.79482,0.0013 6.06091,10.101526 1.66667,2.142857 1.80861,5.525831 4.04061,7.071068 2.5524,1.767045 6.20903,0.867366 9.09138,2.020305 0.69907,0.279628 0.71356,1.328259 1.01015,2.020305 0.71429,1.666667 0.85947,3.657763 2.02031,5.050763 0.68166,0.817997 2.04182,0.614697 3.03045,1.010152 0.69907,0.279629 1.39384,0.592506 2.02031,1.010153 0.39621,0.264143 0.61394,0.746009 1.01015,1.010152 0.62647,0.417647 1.39384,0.592506 2.02031,1.010153 0.39621,0.264143 0.58423,0.797193 1.01015,1.010152 0.30117,0.150585 0.69071,-0.106479 1.01015,0 0.71429,0.238096 1.30602,0.772058 2.02031,1.010153 0.69481,0.231605 2.43444,-0.298005 3.03045,0 0.42592,0.212959 0.5584,0.859568 1.01016,1.010152 1.0734,0.3578 2.96721,-0.3578 4.04061,0 0.71428,0.238096 1.30602,0.772058 2.0203,1.010153 0.60233,0.200775 5.08221,0 6.06092,0"
       id="path6435"
       inkscape:connector-curvature="0" />
    <text
       xml:space="preserve"
       style="font-size:13px;font-style:normal;font-weight:normal;line-height:125%;letter-spacing:0px;word-spacing:0px;fill:#000000;fill-opacity:1;stroke:none;font-family:Sans"
       x="670.74127"
       y="75.54467"
       id="text6437"
       sodipodi:linespacing="125%"><tspan
         sodipodi:role="line"
         id="tspan6439"
         x="670.74127"
         y="75.54467">sign up is always</tspan><tspan
         sodipodi:role="line"
         x="670.74127"
         y="91.79467"
         id="tspan6441">highlighted, if user</tspan><tspan
         sodipodi:role="line"
         x="670.74127"
         y="108.04467"
         id="tspan6443">is not logged in</tspan></text>
    <text
       xml:space="preserve"
       style="font-size:13px;font-style:normal;font-weight:normal;line-height:125%;letter-spacing:0px;word-spacing:0px;fill:#000000;fill-opacity:1;stroke:none;font-family:Sans"
       x="663.67023"
       y="162.41779"
       id="text6447"
       sodipodi:linespacing="125%"><tspan
         sodipodi:role="line"
         id="tspan6449"
         x="663.67023"
         y="162.41779">target=_blank</tspan></text>
    <path
       style="fill:none;stroke:#000000;stroke-width:1px;stroke-linecap:butt;stroke-linejoin:miter;stroke-opacity:1"
       d="m 671.75144,202.82389 c 0,-8.08122 0,-16.16244 0,-24.24366 0,-0.47629 -0.0458,-5.00498 0,-5.05076 0.2381,-0.2381 0.77206,0.23809 1.01016,0 0.23809,-0.2381 -0.2381,-0.77206 0,-1.01016 1.34687,-1.34687 1.01015,1.68359 1.01015,-1.01015 0,-2.69374 -0.33672,0.33672 1.01015,-1.01015 0.2381,-0.2381 0,-0.67344 0,-1.01015 0,-0.37097 -0.0406,-3.99996 0,-4.04061 0.2381,-0.2381 0.67344,0 1.01015,0"
       id="path6451"
       inkscape:connector-curvature="0" />
    <text
       xml:space="preserve"
       style="font-size:8px;font-style:normal;font-weight:normal;line-height:125%;letter-spacing:0px;word-spacing:0px;fill:#000000;fill-opacity:1;stroke:none;font-family:Sans"
       x="793.42859"
       y="11.79075"
       id="text7972"
       sodipodi:linespacing="125%"><tspan
         sodipodi:role="line"
         id="tspan7974"
         x="793.42859"
         y="11.79075"
         style="fill:#ffffff">es</tspan></text>
    <path
       sodipodi:type="star"
       style="fill:#ffffff;fill-opacity:1;stroke:none"
       id="path7976"
       sodipodi:sides="3"
       sodipodi:cx="208.57143"
       sodipodi:cy="12.362178"
       sodipodi:r1="15"
       sodipodi:r2="7.2801719"
       sodipodi:arg1="1.5707963"
       sodipodi:arg2="2.6179939"
       inkscape:flatsided="false"
       inkscape:rounded="0"
       inkscape:randomized="0"
       d="M 208.57143,27.362178 202.26661,16.002264 195.58105,4.8621782 208.57143,5.082006 221.56181,4.8621775 214.87624,16.002264 z"
       inkscape:transform-center-y="0.89285718"
       transform="matrix(0.23019964,0,0,0.23809525,762.55836,5.7045161)" />
    <path
       style="fill:none;stroke:#000000;stroke-width:1px;stroke-linecap:butt;stroke-linejoin:miter;stroke-opacity:1"
       d="m 392.14286,248.07647 c 3.9458,0.1249 8.92766,-0.46456 12.85714,0.71428 0.82226,0.24668 1.34161,1.1204 2.14286,1.42857 2.3201,0.89235 4.84828,1.18679 7.14286,2.14286 0.62163,0.25901 0.95238,0.95238 1.42857,1.42857 2.85714,1.19048 5.67326,2.48462 8.57143,3.57143 0.91918,0.34469 1.90059,0.49354 2.85714,0.71429 2.13891,0.49359 4.33051,0.78301 6.42857,1.42857 1.01771,0.31314 1.90476,0.95238 2.85714,1.42857 2.61905,0.47619 5.29758,0.69727 7.85715,1.42857 0.82543,0.23584 1.32844,1.1571 2.14285,1.42857 2.08249,0.69416 4.34609,0.73441 6.42857,1.42857 1.62883,0.54294 2.67216,2.2704 4.28572,2.85715 1.84517,0.67097 3.89133,0.69938 5.71428,1.42857 0.62527,0.2501 0.88983,1.02451 1.42858,1.42857 0.42591,0.31944 0.93425,0.51656 1.42857,0.71428 7.19019,2.87608 -1.51657,-0.55771 3.57143,0.71429 1.46088,0.36522 2.8378,1.01488 4.28571,1.42857 0.45787,0.13082 0.97682,-0.15058 1.42857,0 0.50508,0.16836 0.9235,0.54593 1.42857,0.71429 0.46619,0.15539 3.43171,0 4.28572,0 0.17323,0 2.11988,0.023 2.14285,0 0.16836,-0.16836 0,-0.47619 0,-0.71429"
       id="path8184"
       inkscape:connector-curvature="0" />
    <text
       xml:space="preserve"
       style="font-size:8px;font-style:normal;font-weight:normal;line-height:125%;letter-spacing:0px;word-spacing:0px;fill:#000000;fill-opacity:1;stroke:none;font-family:Sans"
       x="489.28571"
       y="268.79074"
       id="text8186"
       sodipodi:linespacing="125%"><tspan
         sodipodi:role="line"
         x="489.28571"
         y="268.79074"
         id="tspan8194">for security, we should add a captcha</tspan><tspan
         sodipodi:role="line"
         x="489.28571"
         y="278.79074"
         id="tspan8198">after more than N failed login attempts</tspan><tspan
         sodipodi:role="line"
         x="489.28571"
         y="288.79074"
         id="tspan8200">to a specific user</tspan></text>
  </g>
</svg>
